<?xml version="1.0" encoding="utf-8"?>
<!-- Generator: Adobe Illustrator 26.0.3, SVG Export Plug-In . SVG Version: 6.00 Build 0)  -->
<svg version="1.1" id="Layer_1" xmlns="http://www.w3.org/2000/svg" xmlns:xlink="http://www.w3.org/1999/xlink" x="0px" y="0px"
	 viewBox="0 0 1999.44 1999.44" style="enable-background:new 0 0 1999.44 1999.44;" xml:space="preserve">
<style type="text/css">
	.st0{fill:#BDC1CC;stroke:#E70040;stroke-width:8.976;stroke-linecap:round;stroke-linejoin:round;stroke-miterlimit:10;}
	.st1{fill:#B67368;}
	.st2{fill:#F8FBFC;}
	.st3{fill:#C8C6D4;}
	.st4{fill:#959AAD;}
	.st5{fill:#B6515F;}
	.st6{fill:#D18D7D;}
	.st7{fill:#7A7156;}
	.st8{fill:#7987A1;}
	.st9{fill:#000002;}
	.st10{fill:url(#SVGID_1_);}
	.st11{fill:#D5D2D2;}
	.st12{fill:#969889;}
	.st13{fill:#FFFFFF;}
	.st14{fill:#B9A670;}
	.st15{fill:#898674;}
</style>
<g>
	<path class="st0" d="M1784.68,1045.31"/>
	<g>
		<path class="st1" d="M983.44,1935.75l-66.32,31.41c0,0-45.38-20.94-43.05-95.4c2.33-74.46,65.15-166.38,65.15-166.38l58.17,12.8
			C997.4,1718.18,912.46,1832.2,983.44,1935.75z"/>
		<path d="M917.12,1971.72c-0.66,0-1.3-0.14-1.9-0.42c-1.97-0.9-48.09-23.08-45.7-99.67c2.34-74.94,63.35-165,65.94-168.8
			c1.05-1.53,3.01-2.24,4.73-1.87l58.18,12.79c1.52,0.33,2.75,1.41,3.29,2.86c0.53,1.44,0.3,3.06-0.61,4.31
			c-0.83,1.11-82.14,112.68-13.86,212.27c0.75,1.09,0.98,2.47,0.63,3.76c-0.34,1.28-1.23,2.35-2.45,2.92l-66.3,31.42
			C918.45,1971.57,917.79,1971.72,917.12,1971.72z M941.28,1710.5c-9.96,15.25-60.63,95.94-62.66,161.39
			c-1.97,62.74,30.41,85.46,38.61,90.19l59.51-28.19c-58.11-90.53-2.61-188.36,13.13-212.7L941.28,1710.5z"/>
	</g>
	<g>
		<path class="st1" d="M1084.66,1932.26l-6.98-173.36c0,0-7.12-47.7-58.31-27.92c0,0-35.93,189.65-27.79,209.43
			C999.73,1960.19,1040.45,1968.33,1084.66,1932.26z"/>
		<path d="M1024.56,1961.84c-4.8,0-9.42-0.55-13.79-1.65c-11.33-2.87-19.86-9.44-23.4-18.04c-8.42-20.45,23.82-192.47,27.53-212.02
			c0.29-1.54,1.37-2.83,2.83-3.39c17.6-6.81,32.4-6.83,43.99-0.08c17.06,9.92,20.34,30.71,20.46,31.58l7.04,173.84
			c0.05,1.42-0.57,2.8-1.68,3.7C1066.88,1952.64,1044.26,1961.84,1024.56,1961.84z M1023.35,1734.35
			c-13.76,73.04-33.06,190.98-27.57,204.32c2.43,5.92,8.71,10.54,17.21,12.7c19.15,4.77,44.06-3.09,67.04-21.21l-6.9-171.06l0,0
			c-0.03,0-2.9-17.02-16.05-24.61C1048.49,1729.5,1037.14,1729.46,1023.35,1734.35z"/>
	</g>
	<g>
		<path class="st1" d="M1271.98,1902.01l6.98-179.17l50.03-22.11c0,0,25.6,145.43,22.11,176.85
			C1347.6,1908.99,1291.76,1947.39,1271.98,1902.01z"/>
		<path d="M1300,1927.4c-14.2,0-25.49-8.2-32.19-23.56c-0.27-0.63-0.4-1.31-0.38-2l6.97-179.17c0.07-1.74,1.12-3.28,2.71-3.98
			l50.03-22.11c1.26-0.56,2.75-0.52,3.99,0.14c1.23,0.67,2.09,1.86,2.34,3.23c1.05,5.97,25.67,146.44,22.15,178.15
			c-2.41,21.61-26.53,45.35-49.62,48.85C1303.95,1927.23,1301.95,1927.4,1300,1927.4z M1276.57,1901.13
			c5.93,12.86,15.54,18.6,28.06,16.81c19.2-2.91,39.98-23.15,41.94-40.86c2.99-26.92-16.41-142.64-21.07-169.83l-42.12,18.6
			L1276.57,1901.13z"/>
	</g>
	<g>
		<path class="st1" d="M1355.61,1697.82c0,0,36.2,13.38,30.39,56.43c-5.82,43.05-57.01,125.66-12.8,133.8
			c44.21,8.14,60.5,0,62.83-41.89c2.33-41.89,0-116.35-16.29-140.78c-16.29-24.43-33.74-19.78-33.74-19.78L1355.61,1697.82z"/>
		<path d="M1398.76,1895.39c-7.38,0-16.06-0.97-26.38-2.87c-8.21-1.5-14.19-5.43-17.74-11.62c-9.91-17.25,1.56-49.04,12.64-79.77
			c6.41-17.75,12.45-34.52,14.2-47.48c5.25-38.79-26.12-51.06-27.46-51.57c-1.76-0.67-2.94-2.34-2.95-4.21
			c-0.03-1.87,1.11-3.58,2.84-4.28l30.38-12.22c1.38-0.37,21.35-5.34,39.22,21.48c16.95,25.41,19.48,99.77,17.04,143.54
			c-1.18,21.32-5.9,34.14-15.33,41.56C1418.89,1892.94,1410.48,1895.39,1398.76,1895.39z M1366.2,1698.45
			c11.28,7.54,28.6,24.56,24.3,56.42c-1.89,13.91-8.09,31.13-14.66,49.35c-9.89,27.44-21.12,58.56-13.31,72.16
			c2.2,3.83,5.96,6.18,11.49,7.2c23.92,4.41,37.54,3.57,45.58-2.76c7.09-5.59,10.88-16.67,11.89-34.91
			c2.27-40.95,0.05-114.61-15.54-137.99c-14.09-21.13-28.19-18.05-28.85-17.9L1366.2,1698.45z"/>
	</g>
	<path d="M1010.59,1808.44c-1.34,0-2.67-0.59-3.57-1.72c-1.56-1.97-1.23-4.82,0.74-6.4c1.31-1.04,32.61-25.41,71.66-13.19
		c2.41,0.75,3.73,3.31,2.99,5.7c-0.75,2.42-3.29,3.73-5.7,2.99c-34.55-10.77-63,11.38-63.29,11.63
		C1012.58,1808.11,1011.59,1808.44,1010.59,1808.44z"/>
	<path d="M1015.25,1778.18c-1.35,0-2.71-0.6-3.59-1.76c-1.53-1.97-1.19-4.81,0.77-6.36c0.97-0.75,24.2-18.46,66.5-2.23
		c2.35,0.9,3.53,3.54,2.62,5.88c-0.92,2.36-3.58,3.48-5.88,2.62c-37.17-14.31-56.84,0.27-57.65,0.9
		C1017.19,1777.87,1016.22,1778.18,1015.25,1778.18z"/>
	<path d="M998.56,1864.67c-0.26,0-0.53-0.03-0.81-0.07c-2.46-0.45-4.1-2.79-3.68-5.26c0.12-0.68,3.14-16.93,19.57-27.55
		c15.42-9.96,36.97-11.47,63.99-4.56c2.43,0.61,3.91,3.09,3.28,5.52c-0.62,2.43-3.16,3.95-5.52,3.28
		c-24.41-6.22-43.47-5.11-56.65,3.31c-13.12,8.38-15.61,21.07-15.72,21.61C1002.63,1863.12,1000.72,1864.67,998.56,1864.67z"/>
	<path d="M1018.93,1882.71c-1.41,0-2.8-0.66-3.69-1.89c-1.12-1.56-1.89-4.41-0.36-7.35c2.57-4.97,11.6-11.58,62.27-10.91
		c2.51,0.03,4.52,2.09,4.5,4.61c-0.03,2.5-2.35,4.85-4.61,4.5c-42.03-0.59-51.62,4.15-53.64,5.63c0.31,1.68-0.33,3.49-1.8,4.55
		C1020.78,1882.42,1019.85,1882.71,1018.93,1882.71z M1022.62,1875.49c0,0.01,0,0.01,0,0.01S1022.62,1875.5,1022.62,1875.49z"/>
	<path d="M1017.22,1932.84c-4.25,0-7.08-1.52-7.3-1.64c-2.19-1.22-2.98-3.99-1.76-6.19c1.22-2.16,3.92-2.94,6.11-1.8
		c0.51,0.25,4.78,2.06,10.5-2.6c1.95-1.6,4.84-1.3,6.4,0.63c1.6,1.94,1.31,4.81-0.63,6.4
		C1025.54,1931.72,1020.85,1932.84,1017.22,1932.84z"/>
	<path d="M928.37,1933.33c-0.59,0-1.19-0.12-1.76-0.36c-2.31-0.97-3.4-3.64-2.43-5.95c0.18-0.44,4.5-10.63,12.52-16
		c2.08-1.39,4.89-0.83,6.31,1.26c1.39,2.09,0.83,4.91-1.26,6.31c-5.71,3.81-9.16,11.86-9.18,11.94
		C931.83,1932.28,930.14,1933.33,928.37,1933.33z"/>
	<path d="M901.99,1917.04c-1.41,0-2.79-0.66-3.68-1.89c-1.48-2.04-1.03-4.88,1.01-6.34c1.31-0.96,32.46-23.33,59.15-24.15
		c2.56,0.2,4.61,1.91,4.69,4.41c0.07,2.51-1.9,4.61-4.41,4.69c-23.88,0.72-53.79,22.2-54.09,22.4
		C903.85,1916.75,902.92,1917.04,901.99,1917.04z"/>
	<path d="M891.9,1886.01c-1.05,0-2.12-0.37-2.97-1.11c-1.91-1.64-2.12-4.51-0.48-6.42c1.28-1.49,32.02-36.42,64.89-22.95
		c2.32,0.96,3.44,3.61,2.49,5.93s-3.62,3.43-5.93,2.49c-26.96-11.14-54.29,20.16-54.56,20.49
		C894.45,1885.48,893.18,1886.01,891.9,1886.01z"/>
	<path d="M906.65,1828.61c-2.13,0-4.03-1.5-4.46-3.66c-0.49-2.46,1.11-4.85,3.57-5.34l11.63-2.32c2.51-0.56,4.87,1.11,5.34,3.57
		c0.49,2.46-1.11,4.85-3.57,5.34l-11.63,2.32C907.24,1828.59,906.94,1828.61,906.65,1828.61z"/>
	<path d="M889.58,1810c-1.52,0-3.01-0.77-3.87-2.16c-1.33-2.15-0.66-4.93,1.48-6.26c1.86-1.13,45.88-27.85,74.43-2.64
		c1.89,1.65,2.06,4.52,0.4,6.41c-1.64,1.89-4.54,2.05-6.41,0.4c-23.49-20.72-63.24,3.33-63.63,3.57
		C891.22,1809.78,890.4,1810,889.58,1810z"/>
	<path d="M908.2,1769.67c-1.93,0-3.73-1.24-4.33-3.18c-0.77-2.39,0.57-4.95,2.97-5.7c1.89-0.6,46.49-14.45,68.13-1.09
		c2.15,1.31,2.82,4.11,1.49,6.25c-1.31,2.16-4.15,2.8-6.25,1.49c-15.09-9.25-48.89-1.69-60.64,2.02
		C909.11,1769.6,908.65,1769.67,908.2,1769.67z"/>
	<path d="M1278.95,1778.58c-1.76,0-3.44-1.04-4.18-2.77c-0.98-2.31,0.1-4.97,2.41-5.96c0.9-0.4,22.35-9.42,39.66-6.9
		c2.49,0.34,4.21,2.65,3.85,5.14c-0.34,2.47-2.53,4.36-5.14,3.85c-14.94-2.08-34.62,6.19-34.82,6.27
		C1280.15,1778.46,1279.55,1778.58,1278.95,1778.58z"/>
	<path d="M1277.41,1812.31c-1.24,0-2.49-0.51-3.39-1.52c-1.67-1.87-1.52-4.73,0.34-6.4c0.36-0.33,8.83-7.83,23.78-11.15
		c2.41-0.52,4.88,1.01,5.43,3.46c0.55,2.45-1,4.88-3.46,5.43c-12.48,2.77-19.6,8.98-19.67,9.03
		C1279.57,1811.93,1278.49,1812.31,1277.41,1812.31z"/>
	<path d="M1278.17,1757.22c-0.66,0-1.31-0.14-1.94-0.44c-2.24-1.08-3.23-3.73-2.17-5.99c0.46-1,11.9-24.5,59.42-22.02
		c2.51,0.12,4.44,2.27,4.31,4.77c-0.14,2.51-2.17,4.8-4.77,4.31c-41.04-2.05-50.35,16.04-50.73,16.82
		C1281.49,1756.27,1279.87,1757.22,1278.17,1757.22z"/>
	<path d="M1275.08,1841.02c-1.45,0-2.87-0.7-3.76-1.98c-1.41-2.08-0.89-4.91,1.19-6.33c1.87-1.27,46.33-31.41,71.36-23.88
		c2.41,0.72,3.77,3.25,3.05,5.67c-0.72,2.41-3.28,3.72-5.67,3.05c-17.34-5.15-51.78,14.6-63.59,22.67
		C1276.86,1840.76,1275.97,1841.02,1275.08,1841.02z"/>
	<path d="M1289.82,1872.05c-1.26,0-2.5-0.52-3.4-1.53c-1.67-1.87-1.49-4.76,0.38-6.42c1.5-1.33,37.2-32.64,64.1-24.22
		c2.41,0.75,3.73,3.31,2.99,5.7c-0.75,2.42-3.28,3.72-5.7,2.99c-22.22-6.97-55.02,22.04-55.35,22.33
		C1291.98,1871.66,1290.9,1872.05,1289.82,1872.05z"/>
	<path d="M1303.78,1901.53c-1.09,0-2.19-0.4-3.06-1.19c-1.86-1.68-2-4.56-0.3-6.42c0.15-0.16,15.42-17,22.92-27.5
		c1.46-2.05,4.32-2.53,6.34-1.07c2.05,1.46,2.53,4.31,1.07,6.34c-7.82,10.95-22.96,27.63-23.6,28.35
		C1306.26,1901.02,1305.02,1901.53,1303.78,1901.53z"/>
	<path d="M1386.91,1866.03c-8.58,0-16.74-1.56-18.08-1.83c-2.46-0.49-4.06-2.88-3.57-5.34c0.48-2.45,2.82-4.17,5.34-3.57
		c5.06,0.98,19.72,2.98,26.95,0.2c2.32-0.9,4.96,0.26,5.88,2.62c0.9,2.34-0.27,4.97-2.62,5.88
		C1396.82,1865.53,1391.79,1866.03,1386.91,1866.03z"/>
	<path d="M1408.49,1822.41c-0.48,0-0.96-0.08-1.43-0.23c-17.08-5.69-34.52-1.52-34.7-1.46c-2.38,0.66-4.89-0.86-5.51-3.32
		c-0.6-2.43,0.87-4.89,3.31-5.51c0.83-0.21,20.13-4.88,39.77,1.65c2.39,0.79,3.68,3.38,2.88,5.75
		C1412.16,1821.21,1410.39,1822.41,1408.49,1822.41z"/>
	<path d="M1432.54,1770.43c-1.13,0-2.27-0.42-3.16-1.27c-17.96-17.28-41.15-10.82-42.12-10.54c-2.49,0.64-4.93-0.71-5.63-3.1
		c-0.7-2.41,0.67-4.92,3.08-5.63c1.19-0.36,29.15-8.28,50.99,12.71c1.8,1.74,1.86,4.62,0.12,6.44
		C1434.93,1769.97,1433.73,1770.43,1432.54,1770.43z"/>
	<path d="M1429,1738.63c-0.62,0-1.24-0.15-1.84-0.46c-21.77-11.38-38.11-4.59-38.27-4.51c-2.19,0.93-4.62-0.2-5.48-2.53
		c-0.86-2.34,0.19-4.99,2.34-5.92c0.8-0.34,20-8.36,45.08,4.78c2.1,1.09,2.97,3.81,1.95,6.07
		C1432.06,1737.69,1430.55,1738.63,1429,1738.63z"/>
	<path class="st2" d="M933.02,1678.24c0,0-26.37,41.89-51.19,6.21c0,0-38.78,10.86-69.81-21.72s-46.54-52.74-85.32-88.42
		c-38.78-35.68-86.87-65.15-99.28-187.71C615,1264.04,833.74,403.07,894.24,258.8s88.42-164.44,125.66-186.16
		c37.23-21.72,69.81-38.78,127.21-40.33c57.4-1.55,162.89,46.54,210.98,206.32s114.8,477.8,127.21,601.9s10.86,727.56,4.65,767.89
		s-48.09,27.92-48.09,27.92s-46.54,83.77-96.18,57.4c0,0-48.09,18.62-85.32,43.44c-37.23,24.82-58.95,13.96-58.95,13.96
		s-15.51,23.27-32.58,13.96c-17.06-9.31-26.37-18.62-34.13-7.76c-7.76,10.86-24.82,31.03-63.6-20.17c0,0-27.92,1.55-38.78-10.86
		c0,0-24.05,7.76-41.11-21.72c0,0-14.74,23.27-34.9,13.19S931.47,1686.77,933.02,1678.24z"/>
	<path class="st3" d="M1381.57,323.26c-24.86,45.25-47.56,104.51-58.4,146.52c-18.62,72.14,32.58,134.96,34.9,151.25
		c2.33,16.29,9.31,60.5,6.98,97.73c-2.33,37.23,4.65,46.54,2.33,109.37c-2.33,62.83-9.31,58.17-18.62,137.29
		c-9.31,79.12,2.33,65.15,16.29,132.64s-4.65,46.54-25.6,97.73c-20.94,51.19-9.31,58.17-27.92,102.39
		c-18.62,44.21-46.54,65.15-111.69,60.5c-65.15-4.65-167.54-6.98-251.31,32.58c-83.77,39.56-83.77-146.6-114.02-172.19
		c-30.25-25.6,6.98-123.33-18.62-100.06c-25.6,23.27,25.6-144.27,32.58-211.75c6.98-67.48-60.5,9.31-51.19-18.62
		c9.31-27.92,55.85-69.81,44.21-121c-11.63-51.19,11.63-100.06,23.27-137.29c8.72-27.9-29.6-87.81-49.36-116.09
		c-85.47,310.68-196.95,783.88-187.99,872.35c12.41,122.55,60.5,152.03,99.28,187.71c38.78,35.68,54.3,55.85,85.32,88.42
		c31.03,32.58,69.81,21.72,69.81,21.72c24.82,35.68,51.19-6.2,51.19-6.2c-1.55,8.53,3.1,29.47,23.27,39.56
		c20.17,10.08,34.9-13.19,34.9-13.19c17.06,29.47,41.11,21.72,41.11,21.72c10.86,12.41,38.78,10.86,38.78,10.86
		c38.78,51.19,55.85,31.03,63.6,20.17c7.76-10.86,17.06-1.55,34.13,7.76c17.06,9.31,32.58-13.96,32.58-13.96
		s21.72,10.86,58.95-13.96c37.23-24.82,85.32-43.44,85.32-43.44c49.64,26.37,96.18-57.4,96.18-57.4s41.88,12.41,48.09-27.92
		c6.2-40.33,7.76-643.79-4.65-767.89C1474.8,735.72,1425.58,492.57,1381.57,323.26z"/>
	<path class="st4" d="M1077.68,369.72c0,0-24.43,10.47,8.14,73.3c32.58,62.83,48.87,72.14,77.95,46.54
		c29.09-25.6,51.19-114.02,32.58-138.45C1177.74,326.67,1077.68,369.72,1077.68,369.72z"/>
	<path class="st4" d="M1381.57,323.26c-24.86,45.25-47.56,104.51-58.4,146.52c-18.62,72.14,32.58,134.96,34.9,151.25
		c2.33,16.29,9.31,60.5,6.98,97.73c-2.33,37.23,4.65,46.54,2.33,109.37c-2,54.02-7.45,58.28-14.85,108.68
		c5.32,23.13,9.91,41.78,13.3,54.2c27.92,102.39,43.44,242,43.44,325.77c0,83.77-12.41,43.44-40.33,83.77
		c-27.92,40.33,6.21,49.64,21.72,77.56c15.51,27.92,12.41,49.64,9.31,96.18c-3.1,46.54-58.95,62.05-99.28,96.18
		c-40.33,34.13-127.21,49.64-288.54,3.1c-161.33-46.54-279.23-74.46-263.72-297.85c8.42-121.26,45.17-329.26,77.02-494.2
		c-15.91,6.81-33.17,22.13-28.16,7.09c6.84-20.53,33.75-48.64,42.93-82.42c0.83-4.16,1.64-8.2,2.45-12.26
		c1.06-8.47,0.9-17.24-1.17-26.32c-11.63-51.19,11.63-100.06,23.27-137.29c0.74-2.38,1.03-5.06,1.13-7.87
		c-20.96-22.49-45.75-29.68-73.15-24.32c-81.19,305.76-173.52,707.62-165.33,788.44c12.41,122.55,60.5,152.03,99.28,187.71
		c38.78,35.68,54.3,55.85,85.32,88.42c31.03,32.58,69.81,21.72,69.81,21.72c24.82,35.68,51.19-6.2,51.19-6.2
		c-1.55,8.53,3.1,29.47,23.27,39.56c20.17,10.08,34.9-13.19,34.9-13.19c17.06,29.47,41.11,21.72,41.11,21.72
		c10.86,12.41,38.78,10.86,38.78,10.86c38.78,51.19,55.85,31.03,63.6,20.17c7.76-10.86,17.06-1.55,34.13,7.76
		c17.06,9.31,32.58-13.96,32.58-13.96s21.72,10.86,58.95-13.96c37.23-24.82,85.32-43.44,85.32-43.44
		c49.64,26.37,96.18-57.4,96.18-57.4s41.88,12.41,48.09-27.92c6.2-40.33,7.76-643.79-4.65-767.89
		C1474.8,735.72,1425.58,492.57,1381.57,323.26z"/>
	<path d="M1114.51,1775.09c-13.37,0-28.32-10.91-45.63-33.31c-7.19,0.29-27.17-0.64-38.08-10.51c-6.97,1.12-25.3,1.61-39.93-18.79
		c-7.65,8.46-21.2,17.07-36.61,9.39c-15.55-7.79-22.56-21.07-24.98-31.71c-5.86,6.12-14.68,12.97-24.97,13.22
		c-8.92-0.26-17.12-4.44-24.38-13.86c-10.28,1.98-43.47,5.45-71.19-23.67c-9.79-10.26-18.03-19.31-25.94-27.99
		c-16.84-18.46-32.73-35.89-59.16-60.22c-4-3.68-8.09-7.28-12.23-10.93c-36.19-31.89-77.2-68.03-88.51-179.65
		c-8.13-80.29,79.21-446.86,106.18-557.3c63.95-261.92,131.65-502.79,160.98-572.72c58.97-140.65,87.54-164.98,127.55-188.33
		c39.43-22.99,71.78-39.39,129.37-40.95c52.07-1.72,164.62,40.58,215.46,209.56c46.96,156.01,114.82,477.11,127.38,602.76
		c12.55,125.52,10.93,727.98,4.62,769.04c-1.97,12.78-7.46,22.11-16.33,27.74c-12.23,7.74-27.27,6-34,4.67
		c-9.1,15.2-51.31,79.98-98.66,57.2c-9.17,3.69-50.28,20.72-82.56,42.23c-30.56,20.4-51.66,17.88-59.79,15.59
		c-7.23,9.12-21.72,20.57-36.44,12.55c-3.38-1.84-6.46-3.68-9.28-5.37c-13.22-7.91-15.68-8.36-18.97-3.74
		c-3.18,4.47-10.63,14.91-23.52,15.09C1114.76,1775.09,1114.63,1775.09,1114.51,1775.09z M1071.08,1732.63
		c1.42,0,2.76,0.67,3.62,1.8c19.72,26.02,32.51,31.56,39.84,31.56c0.07,0,0.14,0,0.2,0c7.27-0.11,12.11-5.48,16.24-11.28
		c8.71-12.18,19.56-5.67,31.04,1.22c2.73,1.63,5.71,3.42,8.97,5.19c13.27,7.19,26.49-12.31,26.62-12.51
		c1.27-1.9,3.74-2.54,5.82-1.54c0.16,0.1,20.21,9.16,54.38-13.68c37.23-24.81,85.72-43.71,86.21-43.88c1.24-0.48,2.6-0.41,3.77,0.22
		c45.29,24.09,89.64-54.79,90.08-55.6c1.04-1.86,3.28-2.75,5.26-2.15c0.16,0.05,17.77,5.03,30.12-2.83
		c6.53-4.17,10.63-11.37,12.18-21.43c6.29-40.89,7.84-641.52-4.67-766.74c-12.52-125.24-80.2-445.42-127.05-601.04
		c-49.27-163.74-156.34-204.4-206.49-203.09c-55.43,1.5-86.79,17.4-125.03,39.72c-33.11,19.31-61.71,35.99-123.75,183.98
		C838.4,403.72,619.81,1266.45,631.93,1386.13c10.95,108.09,50.54,142.97,85.47,173.76c4.18,3.69,8.34,7.34,12.37,11.06
		c26.73,24.6,42.76,42.18,59.72,60.78c7.89,8.64,16.09,17.64,25.82,27.87c28.66,30.08,63.81,20.87,65.3,20.46
		c1.89-0.51,3.85,0.22,4.95,1.79c5.75,8.25,11.86,12.45,18.19,12.45c0.11,0,0.21,0,0.31-0.01c13.43-0.29,24.98-18.29,25.11-18.48
		c1.15-1.83,3.42-2.6,5.49-1.8c2.02,0.79,3.21,2.91,2.82,5.04c-1.07,5.95,1.87,25.2,20.84,34.69c16.22,8.16,28.52-10.74,29.03-11.56
		c0.86-1.33,2.49-2.16,3.94-2.09c1.59,0.03,3.05,0.89,3.84,2.26c15.05,26.01,35.59,19.76,35.78,19.67c1.68-0.57,3.61-0.04,4.82,1.34
		c7.67,8.77,27.88,9.64,35.1,9.31C1070.91,1732.63,1071,1732.63,1071.08,1732.63z"/>
	<g>
		<polygon class="st5" points="1082.72,390.66 1138.57,472.88 1179.68,383.68 1136.24,354.98 		"/>
		<path d="M1138.57,477.43c-1.5,0-2.91-0.74-3.76-2l-55.84-82.22c-0.68-1-0.94-2.23-0.71-3.43c0.23-1.19,0.94-2.23,1.94-2.91
			l53.52-35.68c1.53-1.01,3.53-1.02,5.03-0.01l43.43,28.7c1.89,1.24,2.57,3.66,1.63,5.7l-41.11,89.2c-0.68,1.49-2.12,2.49-3.76,2.62
			C1138.81,477.43,1138.69,477.43,1138.57,477.43z M1089.06,391.9l48.74,71.77l36.11-78.34l-37.65-24.88L1089.06,391.9z"/>
	</g>
	<g>
		<path class="st6" d="M1202.17,347.23c-3.88-27.92-12.41-39.56-26.37-34.13c-13.96,5.43-38.78,20.17-38.78,20.17
			c-41.88-32.58-65.93-15.51-77.56,14.74c-11.63,30.25,23.27,42.66,23.27,42.66l53.52-35.68l43.44,28.7
			C1198.29,383.68,1206.05,375.15,1202.17,347.23z"/>
		<path d="M1082.72,395.21c-0.52,0-1.03-0.09-1.52-0.27c-0.77-0.27-18.79-6.83-25.87-22.23c-3.72-8.06-3.76-16.93-0.14-26.35
			c7.12-18.48,17.99-30.22,31.42-33.96c14.58-4.02,31.58,1.13,50.73,15.39c6.85-3.98,25.22-14.44,36.79-18.94
			c6.05-2.36,11.56-2.14,16.35,0.67c8.2,4.81,13.34,16.59,16.2,37.07c2.28,16.5,0.68,27.25-5.06,33.84
			c-4.63,5.32-11.6,7.8-21.95,7.8c-0.89,0-1.76-0.27-2.5-0.76l-40.92-27.03l-51.01,34C1084.49,394.95,1083.61,395.21,1082.72,395.21
			z M1096.59,320.17c-2.62,0-5.14,0.33-7.53,1c-13.34,3.71-21.16,17.53-25.37,28.46c-2.71,7.02-2.75,13.5-0.12,19.24
			c4.24,9.27,14.32,14.69,18.66,16.66l51.48-34.33c1.53-1.01,3.53-1.02,5.03-0.01l42.27,27.93c6.75-0.17,11.14-1.66,13.75-4.65
			c3.83-4.4,4.78-13.11,2.9-26.61c-2.94-21.21-8.04-28.28-11.78-30.49c-1.46-0.85-3.92-1.78-8.43-0.03
			c-13.45,5.23-37.86,19.7-38.1,19.84c-1.6,0.96-3.64,0.84-5.11-0.32C1119.96,325.76,1107.34,320.17,1096.59,320.17z"/>
	</g>
	<path d="M1088.53,351.78c-1.56,0-3.09-0.81-3.92-2.26c-1.27-2.17-0.53-4.95,1.63-6.22l4.66-2.72c2.16-1.26,4.96-0.54,6.22,1.64
		c1.27,2.17,0.53,4.95-1.63,6.22l-4.66,2.72C1090.1,351.57,1089.31,351.78,1088.53,351.78z"/>
	<path d="M1201.39,357.98c-0.64,0-1.28-0.14-1.9-0.42c-8.82-4.06-17.84-3.47-17.92-3.47c-2.51,0.02-4.7-1.71-4.87-4.2
		c-0.19-2.5,1.68-4.68,4.18-4.87c0.45-0.05,11.38-0.79,22.4,4.29c2.28,1.05,3.28,3.75,2.23,6.03
		C1204.75,357,1203.11,357.98,1201.39,357.98z"/>
	<path d="M1010.58,275.1c-15.42,0-27.91,12.5-27.91,27.91c0,15.41,12.5,27.91,27.91,27.91c15.42,0,27.91-12.5,27.91-27.91
		C1038.5,287.6,1026,275.1,1010.58,275.1z"/>
	<g>
		<path class="st7" d="M338.87,1490.53c0,0-3.1-29.47-37.23-46.54c-34.13-17.06-145.82-110.14-144.27-152.03
			c1.55-41.89,209.43-381.62,302.5-508.83S632.07,522.52,646.03,497.7s91.53-44.99,91.53-44.99s9.31,44.99-12.41,142.72
			c-21.72,97.73-24.82,310.26-4.65,426.61s-91.53,691.88-85.32,764.79s-76.01,44.99-117.9,27.92
			c-41.89-17.06-161.33-184.6-172.97-224.16C332.67,1551.03,338.87,1490.53,338.87,1490.53z"/>
		<path d="M594.39,1839.08c-19.75,0-45.87-6.7-78.84-20.12c-41.86-17.07-163.32-185.36-175.61-227.09
			c-11.3-38.42-6.27-94.78-5.64-101.27c-0.53-3.61-5.14-27.77-34.69-42.53c-31.31-15.66-148.52-109.54-146.78-156.27
			c1.61-43.76,209.35-382.84,303.38-511.35c91.87-125.56,169.98-256.73,185.86-284.98c14.75-26.21,91.1-46.32,94.34-47.16
			c1.23-0.33,2.49-0.12,3.55,0.54c1.05,0.66,1.79,1.72,2.05,2.94c0.38,1.88,9.25,47.06-12.42,144.62
			c-22.18,99.85-24.46,310.29-4.61,424.85c12.16,70.18-23.26,306.36-51.72,496.14c-19.33,128.88-36.01,240.2-33.55,269.05
			c1.76,20.79-3.27,35.68-14.95,44.28C617.21,1836.29,607.13,1839.08,594.39,1839.08z M733.78,458.45
			c-23.88,6.72-73.87,23.84-83.79,41.48c-15.94,28.35-94.3,159.97-186.43,285.9c-100.01,136.67-300.21,467.42-301.63,506.31
			c-1.45,38.92,109.38,131.6,141.75,147.79c35.94,17.97,39.58,48.83,39.72,50.13c0.03,0.31,0.03,0.63,0,0.94
			c-0.05,0.6-5.97,60.09,5.26,98.31c11.66,39.59,131.23,205.3,170.33,221.24c50.35,20.5,84.12,24.83,100.38,12.86
			c8.95-6.59,12.75-18.76,11.26-36.19c-2.54-29.92,14.23-141.71,33.63-271.17c28.36-189.12,63.65-424.49,51.74-493.23
			c-20.02-115.46-17.7-327.64,4.69-428.38C737.97,516.68,735.38,472.38,733.78,458.45z"/>
	</g>
	<path d="M468.41,1098.73c-0.05,0-0.12,0-0.19,0c-2.5-0.11-4.46-2.23-4.36-4.74c5.36-129.36-4.35-310.34-4.44-312.15
		c-0.14-2.51,1.78-4.65,4.29-4.79c2.54-0.1,4.66,1.79,4.78,4.3c0.11,1.82,9.84,183.22,4.47,313.03
		C472.85,1096.82,470.84,1098.73,468.41,1098.73z"/>
	<path d="M355.94,1479.57c-0.49,0-1-0.08-1.49-0.26c-2.38-0.82-3.64-3.42-2.8-5.78c119.01-342.12,140.73-529.27,140.93-531.11
		c0.27-2.49,2.3-4.23,5.03-4.02c2.49,0.28,4.29,2.53,4.02,5.02c-0.2,1.86-21.99,189.86-141.4,533.09
		C359.59,1478.4,357.83,1479.57,355.94,1479.57z"/>
	<g>
		<path class="st7" d="M1533.37,458.92l308.71,519.68c0,0-34.9,8.53-32.58,27.15c2.33,18.62,7.76,19.39-1.55,33.35
			c-9.31,13.96-23.27,6.21-23.27,6.21s2.33,29.47-2.33,41.89c-4.65,12.41-0.78,13.19,0,24.82c0.78,11.63-10.86,12.41-23.27-6.21
			c-12.41-18.62-23.27-38.01-31.8-31.8c-8.53,6.21-26.37,3.1-24.05,22.49s-27.15,31.8-42.66,48.09
			c-15.51,16.29-52.74,78.34-20.17,84.55s41.11,24.05,28.7,57.4s-24.05,65.15-3.88,68.26c20.17,3.1,24.82,32.58,4.65,31.8
			c-20.17-0.78-55.07,5.43-44.99,50.42c10.08,44.99,20.94,63.6,50.42,79.89c29.47,16.29,24.82,31.03,20.17,60.5
			c-4.65,29.47-15.51,41.89-36.46,67.48c-20.94,25.6-37.23-24.05-37.23-24.05s-7.76,31.8-16.29,32.58
			c-8.53,0.78-6.21-3.1-13.19-19.39c-6.98-16.29-11.63-7.76-22.49,13.19c-10.86,20.94-41.89,20.94-44.99,15.51
			c-3.1-5.43-59.72-474.7-67.48-516.58s43.44-670.16,49.64-681.02C1513.2,454.26,1533.37,458.92,1533.37,458.92z"/>
		<path d="M1535.66,1670.31c-4.76,0-12.16-0.78-14.77-5.33c-1.65-2.9-7.09-43.97-32.28-244.16
			c-15.66-124.34-31.84-252.92-35.71-273.84c-6.25-33.68,40.17-666.63,50.16-684.11c7.8-13.64,30.42-8.6,31.35-8.38
			c1.2,0.28,2.26,1.05,2.88,2.11l308.71,519.69c0.74,1.24,0.85,2.75,0.29,4.08c-0.56,1.33-1.71,2.32-3.12,2.66
			c-0.3,0.08-30.91,8.02-29.15,22.17c0.66,5.22,1.57,8.99,2.31,12.03c2.09,8.71,2.77,13.37-4.59,24.41
			c-6.48,9.72-15.33,11.22-22.13,10.09c0.41,9.76,0.57,27.59-2.98,37.08c-2.64,7.01-2.16,9.16-1.2,13.41
			c0.56,2.47,1.2,5.34,1.48,9.51c0.42,6.34-2.13,11.07-6.81,12.66c-7.15,2.35-16.47-3.55-24.79-16.03l-4.61-7.01
			c-6.71-10.28-15.06-23.07-19.71-23.93c-4.18,2.58-8.01,3.74-11.7,4.87c-8.58,2.61-12.67,4.28-11.53,13.69
			c1.9,15.84-12.74,26.88-26.9,37.57c-6.05,4.58-12.31,9.31-16.99,14.2c-11.9,12.51-36.63,52.99-31.12,70.14
			c1.22,3.77,3.92,5.93,8.51,6.81c17.1,3.25,28.13,9.66,33.7,19.57c5.97,10.59,5.45,24.96-1.59,43.88
			c-8.65,23.25-18.45,49.6-13.01,58.88c0.68,1.15,2,2.75,5.56,3.29c14.1,2.17,22.45,15.38,21.4,26.35
			c-0.87,9.18-7.52,14.47-17.63,14.5c-7.63-0.42-26.38,0.26-35.9,11.7c-6.22,7.46-7.72,18.63-4.46,33.17
			c10.09,45.06,20.45,61.58,48.18,76.9c30.35,16.78,27.57,33.83,23.34,59.64l-0.89,5.55c-4.67,29.67-15.55,42.94-35.27,67.04
			l-2.15,2.62c-5.74,7.01-11.94,9.96-18.51,8.73c-9.61-1.79-16.93-12.79-21.46-21.91c-3.76,11.25-9.36,22.69-16.67,23.34
			c-9.54,0.92-11.32-4.17-13.67-11.17c-0.93-2.75-2.13-6.34-4.11-10.96c-2.16-5.06-3.42-5.86-3.46-5.89
			c-1.34,1.12-6.6,11.25-10.82,19.38c-7.82,15.1-24.98,20.75-37.3,21.01C1536.27,1670.31,1535.97,1670.31,1535.66,1670.31z
			 M1528.89,1660.26c1.9,0.78,7.8,1.69,15.47-0.05c5.75-1.3,16.18-4.97,21.43-15.09c8.17-15.76,12.64-24.08,19.76-24.16
			c5.48,0.21,8.61,5.81,10.95,11.28c2.1,4.91,3.39,8.73,4.37,11.64c0.71,2.13,1.53,4.55,2.01,5.1c0.01-0.04,0.18,0,0.64-0.01
			c0.34,0,0.86-0.01,1.57-0.07c2.91-1.15,8.84-15.05,12.29-29.14c0.48-1.97,2.21-3.39,4.24-3.46c2.16-0.36,3.87,1.19,4.5,3.12
			c3.32,10.1,11.58,26.66,19.61,28.15c2.9,0.59,6.29-1.31,9.77-5.56l2.16-2.62c19.33-23.6,29.03-35.45,33.32-62.69l0.9-5.59
			c4.22-25.84,5.97-36.55-18.76-50.23c-30.18-16.66-42-35.25-52.66-82.86c-3.91-17.45-1.78-31.24,6.34-40.99
			c11.69-14.04,32.17-15.28,43.26-14.98c4.76,0.19,7.82-1.91,8.23-6.27c0.56-5.78-4.02-14.99-13.75-16.48
			c-5.47-0.85-9.51-3.43-12-7.68c-7.64-13.01,2.05-39.07,12.31-66.65c6.05-16.26,6.77-28.13,2.19-36.26
			c-4.18-7.42-13.17-12.37-27.47-15.09c-9.96-1.9-13.91-8.09-15.47-12.96c-7.04-21.89,20.08-65.44,33.18-79.2
			c5.18-5.44,11.75-10.39,18.1-15.18c12.67-9.55,24.63-18.59,23.36-29.22c-2.1-17.41,9.94-21.06,17.9-23.49
			c3.12-0.94,6.05-1.83,7.97-3.23c2.42-1.74,5.18-2.41,8.04-1.87c8.47,1.56,16.06,13.19,25.68,27.91l4.55,6.92
			c7.72,11.59,13.34,12.75,14.3,12.48c0.23-0.08,0.81-1.07,0.66-3.44c-0.23-3.55-0.81-6.01-1.27-8.12
			c-1.09-4.85-2.04-9.03,1.54-18.6c3.53-9.39,2.68-32.01,2.05-39.93c-0.12-1.67,0.67-3.28,2.08-4.18c1.44-0.9,3.21-0.96,4.67-0.15
			c1.04,0.57,10.56,5.3,17.26-4.76c5.49-8.21,5.07-9.94,3.32-17.21c-0.81-3.31-1.78-7.38-2.49-13.05
			c-2.16-17.25,19.45-26.76,30.2-30.4l-304.69-512.91c-5.45-0.88-16.32-1.32-19.56,4.37c-6.64,19.83-56.87,636.13-49.12,677.93
			c3.92,21.2,20.13,149.91,35.79,274.38C1511.71,1531.6,1526.27,1647.23,1528.89,1660.26z"/>
	</g>
	<path class="st8" d="M1227.77,735.83c163.66-119.45,189.26-176.85,189.26-176.85l-54.43-19.39
		c-34.13,71.36-187.32,168.7-187.32,168.7l-115.18,2.33c-94.24-98.9-207.1-165.21-207.1-165.21l-8.53,21.72
		c18.62,58.17,166.9,164.05,166.9,164.05c55.85,63.6,79.89,100.06,79.89,100.06l-138.2,550.71l128.75,174.65
		c18.8,31.16,56.77,16.2,72.92-16.41l112.61-198.57l-117.9-500.29C1204.5,804.86,1227.77,735.83,1227.77,735.83z"/>
	<path class="st9" d="M1204.5,728.07c163.66-119.45,189.26-176.85,189.26-176.85l-12.41-15.51
		c-34.13,71.36-193.91,183.83-193.91,183.83l-163.66,2.33c-81.44-58.95-175.3-167.54-175.3-167.54l-8.53,21.72
		c18.62,58.17,148.15,147.37,148.15,147.37c55.85,63.6,79.89,100.06,79.89,100.06l-100.83,520.46l129.53,202.44l147.37-212.53
		l-117.9-500.29C1181.23,797.1,1204.5,728.07,1204.5,728.07z"/>
	<linearGradient id="SVGID_1_" gradientUnits="userSpaceOnUse" x1="384.2907" y1="892.9857" x2="806.9219" y2="1093.019">
		<stop  offset="0.3398" style="stop-color:#F8FBFC"/>
		<stop  offset="0.5397" style="stop-color:#D1D2D9"/>
	</linearGradient>
	<path class="st10" d="M335.77,1462.61c0,0-48.09,51.19-20.17,71.36c0,0,33.35,26.37,28.7,56.62c-4.65,30.25,0.78,63.6,29.47,100.83
		c28.7,37.23,57.4,86.87,83.77,117.9c26.37,31.03,44.21,31.8,72.91,32.58c28.7,0.78,23.27,0.78,65.93,24.82
		c42.66,24.05,42.66-9.31,42.66-9.31s15.51,1.55,16.29-18.62s4.65-21.72,10.08-30.25c5.43-8.53,11.63-24.82,3.88-43.44
		s-3.88-55.85,6.21-89.2s11.63-144.27,17.06-226.49c5.43-82.22,24.05-131.86,23.27-162.11c-0.78-30.25,1.55-44.21,16.29-65.15
		c14.74-20.94,9.31-27.15,6.98-38.01c-2.33-10.86-6.98-45.76,17.84-72.91c24.82-27.15,15.51-118.67-0.78-152.03
		c-16.29-33.35-16.29-93.85-8.53-121s40.33-20.17,51.97-65.15c11.63-44.99,16.29-159.01,27.15-167.54
		c10.86-8.53,23.27-1.55,30.25-23.27c6.98-21.72-6.21-41.89-18.62-54.3c-12.41-12.41-12.41-57.4,5.43-76.01s-3.88-42.66,17.84-81.44
		c21.72-38.78,39.56-107.04,38.01-123.33c-1.55-16.29-9.31,31.03-30.25,11.63c-20.94-19.39-39.56-31.8-53.52-8.53
		c-13.96,23.27-16.29,29.47-16.29,29.47s-72.91-55.85-95.4,60.5c0,0-47.31,51.97-48.87,63.6c-1.55,11.63,11.63,23.27,29.47,35.68
		c17.84,12.41,29.47,18.62,30.25,48.09c0.78,29.47-13.19,44.99-26.37,40.33c-13.19-4.65-24.05-17.84-38.01,8.53
		c-13.96,26.37-22.49,62.05,4.65,78.34c0,0-62.05,52.74-34.9,84.55c27.15,31.8,26.37,34.9,17.84,62.83
		c-8.53,27.92-0.78,45.76,13.19,61.28c13.96,15.51,17.06,37.23,2.33,69.03c-14.74,31.8-32.58,82.99,10.86,100.83
		c43.44,17.84,44.99,49.64,41.89,78.34c-3.1,28.7-27.15,66.71-27.15,112.47s-17.06,49.64-12.41,107.04
		c4.65,57.4-13.96,107.82-16.29,161.33c-2.33,53.52-5.43,99.28-16.29,174.52s-32.58,121.78-20.17,148.92
		c12.41,27.15-4.65,30.25-14.74,27.15c-10.08-3.1-6.98,2.33-16.29,3.88c-9.31,1.55-11.63-5.43-41.89-7.76
		c-30.25-2.33-62.83-13.19-90.75-70.58c-27.92-57.4-32.58-86.87-43.44-93.85c-10.86-6.98-28.7-20.94-31.03-66.71
		c0,0-24.82-16.29-10.08-39.56c14.74-23.27-6.98-46.54-10.08-53.52S335.77,1462.61,335.77,1462.61z"/>
	<path d="M622.17,1879.97c-7.67,0-17.04-3.1-28.02-9.29c-7.08-3.99-12.85-7.33-17.66-10.1c-23.37-13.52-23.37-13.52-46.17-14.13
		c-28.06-0.77-48.31-1.31-76.26-34.17c-14.64-17.25-29.62-39.59-45.47-63.24c-12.57-18.76-25.57-38.17-38.43-54.85
		c-26.02-33.77-35.96-67.88-30.37-104.31c4.2-27.22-26.72-52.11-27.03-52.36c-6.05-4.37-9.58-10.48-10.3-18.03
		c-2.41-25.22,28.67-58.6,29.99-60.01c1.22-1.28,3.05-1.78,4.7-1.22c3.17,1.01,19.2,6.46,22.95,14.9c0.49,1.11,1.54,2.65,2.82,4.61
		c6.68,10.28,20.61,31.64,6.94,53.19c-12.19,19.26,7.89,32.75,8.75,33.32c1.2,0.79,1.97,2.12,2.04,3.57
		c2.34,45.99,20.99,57.99,28.95,63.11c7.18,4.61,11.3,15.25,18.81,34.58c5.77,14.86,13.67,35.19,26.27,61.1
		c27.24,56.01,57.92,65.81,87.02,68.05c17.67,1.37,26.27,4.31,31.95,6.26c4.06,1.39,5.92,2.04,8.82,1.54
		c2.77-0.46,3.81-1.26,5.02-2.19c3.49-2.69,6.56-3.65,13.37-1.54c4.06,1.26,9.35,1.11,11.64-1.5c2.72-3.1,1.85-10.17-2.38-19.42
		c-8.45-18.48-2.56-44.08,5.6-79.5c4.78-20.73,10.2-44.25,14.2-71.97c10.44-72.34,13.76-116.99,16.25-174.05
		c0.96-22.1,4.7-43.98,8.34-65.15c5.25-30.57,10.66-62.18,7.95-95.63c-2.68-32.96,1.72-48.97,5.96-64.44
		c3.31-12.07,6.44-23.47,6.44-42.97c0-28.35,8.83-53.37,16.61-75.44c5.04-14.3,9.39-26.64,10.56-37.52
		c2.88-26.68,2.49-56.57-39.07-73.64c-13.08-5.37-22.03-14-26.61-25.67c-7.5-19.13-3.14-45.72,13.34-81.29
		c12.82-27.68,12.31-48.64-1.57-64.08c-11.9-13.2-24.26-32.6-14.16-65.64c8.21-26.89,8.71-28.5-16.95-58.55
		c-5.96-6.98-8.6-15.32-7.84-24.8c2.04-25.38,28.3-52.32,38.91-62.25c-19.52-15.73-20.19-45.43-1.38-80.92
		c13.37-25.24,26.3-18.87,36.71-13.74c2.23,1.09,4.48,2.22,6.83,3.05c3.1,1.11,6.22,0.58,9.18-1.59
		c5.71-4.15,11.62-15.34,11.12-34.34c-0.67-25.42-9.38-31.42-25.19-42.32l-3.12-2.16c-20.17-14.03-33.22-26.21-31.38-40.01
		c1.6-12.03,39.44-54.42,49.15-65.12c8.02-40.39,23.12-65.05,44.9-73.32c21.87-8.31,43.62,2.49,52.89,8.21
		c2.24-4.41,6.46-12.15,14.24-25.09c5.19-8.66,11.56-13.59,18.93-14.64c12.74-1.82,25.79,7.56,41.57,22.18
		c2.87,2.66,5.49,3.73,7.5,3.48c4.58-0.74,8.68-8.22,11.12-12.69c2.42-4.39,4.14-7.92,8.38-7.01c4.05,0.83,4.47,5.33,4.67,7.49
		c1.71,17.94-16.71,86.96-38.57,125.98c-10.84,19.36-10.24,34.62-9.7,48.08c0.48,12.4,0.94,24.11-8.82,34.28
		c-16.55,17.27-15.84,59.31-5.51,69.65c10.93,10.93,28.03,33.11,19.74,58.9c-5.32,16.55-14.09,19-21.83,21.15
		c-3.55,0.99-6.9,1.92-9.94,4.31c-4.61,4.69-9.33,46.95-12.78,77.8c-3.68,32.82-7.46,66.76-12.78,87.3
		c-7.02,27.13-21.68,36.86-33.44,44.68c-8.75,5.81-15.65,10.39-18.56,20.58c-7.23,25.34-7.63,85.23,8.24,117.75
		c16.47,33.73,26.9,127.72,0.05,157.09c-23.68,25.9-18.81,59.27-16.76,68.88c0.34,1.59,0.75,3.05,1.15,4.48
		c2.5,9.06,4.85,17.62-8.86,37.11c-14.08,19.99-16.21,33.11-15.46,62.42c0.36,13.83-3.14,31.28-7.57,53.4
		c-5.64,28.25-12.68,63.43-15.7,109.13c-1.64,24.71-2.91,52-4.18,79.01c-3.01,64.1-5.86,124.63-13.07,148.49
		c-10.63,35.14-13.19,69.74-6.37,86.14c9.32,22.35,0.14,40.75-4.24,47.63c-0.97,1.53-1.9,2.84-2.77,4.07
		c-3.74,5.33-6.01,8.54-6.59,23.9c-0.33,8.16-2.83,14.35-7.48,18.38c-3.14,2.75-6.6,3.88-9.28,4.35
		c-0.83,4.54-3.23,11.56-9.98,15.51C630.02,1879.04,626.34,1879.97,622.17,1879.97z M337.11,1467.9
		c-9.18,10.4-27.14,34.48-25.58,50.75c0.48,4.89,2.68,8.71,6.74,11.63c1.6,1.27,35.53,28.51,30.53,61.01
		c-5.19,33.83,4.15,65.67,28.59,97.36c13.02,16.91,26.12,36.44,38.77,55.32c15.7,23.44,30.55,45.57,44.85,62.42
		c25.3,29.75,41.96,30.22,69.56,30.96c24.64,0.67,25.58,0.96,50.49,15.36c4.78,2.76,10.51,6.08,17.55,10.05
		c17.32,9.76,25.84,8.99,29.92,6.63c5.82-3.36,5.97-11.9,5.97-12c0.01-1.27,0.56-2.5,1.52-3.35c0.93-0.85,2.05-1.3,3.49-1.15l0,0
		c0,0.01,3.95,0.27,7.02-2.46c2.62-2.34,4.06-6.31,4.26-11.81c0.66-17.17,3.57-22.11,8.25-28.78c0.79-1.12,1.64-2.32,2.53-3.73
		c3.62-5.67,11.19-20.86,3.53-39.24c-9.35-22.45-2.58-63.74,6.04-92.27c6.89-22.78,9.84-85.57,12.7-146.29
		c1.27-27.06,2.56-54.42,4.2-79.19c3.05-46.3,10.15-81.8,15.87-110.32c4.31-21.54,7.71-38.57,7.38-51.37
		c-0.78-31.04,1.68-45.96,17.12-67.9c11.23-15.96,9.68-21.61,7.52-29.44c-0.44-1.6-0.89-3.24-1.26-4.99
		c-2.3-10.69-7.69-47.82,18.92-76.94c22.26-24.34,15.05-113.08-1.5-146.95c-17.06-34.95-16.62-96.93-8.82-124.25
		c3.84-13.41,13.2-19.63,22.28-25.66c11.56-7.68,23.52-15.63,29.67-39.39c5.14-19.91,8.9-53.53,12.53-86.03
		c6.2-55.47,9.4-78.6,16.2-83.94c4.47-3.51,9.06-4.79,13.12-5.92c6.85-1.91,11.79-3.29,15.61-15.17
		c6.82-21.19-8.04-40.23-17.49-49.69c-14.5-14.5-14.13-62.05,5.37-82.38c7.08-7.39,6.74-15.88,6.29-27.63
		c-0.55-13.94-1.23-31.28,10.87-52.88c18.08-32.3,33.1-85.07,36.7-109.81c-3.16,4.47-7.31,8.54-12.92,9.46
		c-5.06,0.77-10.14-1.14-15.14-5.79c-11.44-10.57-24.38-21.3-34.11-19.84c-4.59,0.66-8.65,4.03-12.42,10.31
		c-13.34,22.24-15.84,28.51-15.94,28.77c-0.52,1.33-1.64,2.35-3.02,2.73c-1.39,0.39-2.88,0.12-3.99-0.74
		c-0.25-0.19-25.34-18.98-48.79-10.03c-18.83,7.18-32.09,29.99-39.39,67.77c-0.16,0.82-0.55,1.59-1.11,2.2
		c-22.78,25.03-46.86,54.74-47.71,61.15c-1.31,9.81,13.19,21.35,27.55,31.35l3.09,2.13c16.44,11.34,28.33,19.53,29.12,49.57
		c0.49,19.13-5.07,34.8-14.87,41.94c-5.38,3.9-11.66,4.88-17.58,2.81c-2.68-0.95-5.28-2.22-7.82-3.47
		c-9.99-4.91-15.44-7.54-24.66,9.84c-6.64,12.56-26.09,54.87,2.98,72.31c1.26,0.76,2.08,2.07,2.2,3.53
		c0.11,1.46-0.48,2.89-1.59,3.84c-0.38,0.32-37.9,32.54-40.09,59.97c-0.56,7.07,1.3,13.01,5.69,18.16
		c27.95,32.75,27.88,37.13,18.72,67.1c-8.71,28.52,1.3,44.77,12.22,56.91c16.59,18.44,17.6,42.64,3.08,73.99
		c-15.38,33.19-19.67,57.44-13.12,74.14c3.68,9.39,10.74,16.12,21.58,20.57c45.26,18.59,47.98,52.42,44.68,83.05
		c-1.28,11.93-6.03,25.34-11.03,39.55c-7.54,21.39-16.09,45.62-16.09,72.42c0,20.73-3.44,33.27-6.77,45.37
		c-4.22,15.39-8.21,29.93-5.66,61.3c2.8,34.58-2.72,66.78-8.06,97.91c-3.74,21.84-7.28,42.48-8.23,63.99
		c-2.49,57.37-5.82,102.24-16.33,174.98c-4.05,28.09-9.51,51.78-14.32,72.71c-7.76,33.68-13.37,58-6.19,73.68
		c6.03,13.2,6.36,23.03,0.94,29.19c-5.48,6.2-14.81,6.15-21.17,4.2c-3.66-1.12-3.92-0.87-5.14,0.05c-1.61,1.24-4.05,3.12-9.07,3.95
		c-5.11,0.89-8.73-0.36-13.26-1.9c-5.56-1.91-13.17-4.52-29.7-5.79c-30.27-2.34-65.18-12.86-94.49-73.13
		c-12.78-26.25-20.76-46.8-26.58-61.8c-6.36-16.39-10.55-27.21-15.24-30.22c-13.98-8.99-30.27-24.87-32.98-68.09
		c-9.74-7.39-22.21-24.4-9.51-44.43c10.52-16.62-0.37-33.36-6.89-43.35c-1.61-2.47-2.87-4.48-3.5-5.89
		C350.5,1474,343.18,1470.18,337.11,1467.9z"/>
	<path class="st11" d="M1555.87,1703.06c0,0,24.43,41.89-20.94,46.54c-45.38,4.65-52.36,5.82-52.36-20.94s3.49-68.64-16.29-225.71
		s-19.78-324.61-37.23-360.68c-17.45-36.07-20.94-33.74-15.13-68.64c5.82-34.9-2.33-84.93-6.98-102.39
		c-4.65-17.45-3.49-6.98-24.43-58.17s1.16-101.22,18.62-117.51c17.45-16.29,23.27-33.74,2.33-59.34
		c-20.94-25.6-27.92-48.87-19.78-72.14s13.96-60.5-5.82-148.92c-19.78-88.42-3.49-116.35-24.43-194.3s-27.92-133.8,11.63-114.02
		c39.56,19.78,27.92,18.62,50.03,17.45c22.11-1.16,29.09-12.8,19.78,34.9c-9.31,47.7,11.63,50.03,40.72,53.52
		c29.09,3.49,52.36,1.16,57.01,50.03s0,51.19,16.29,70.97c16.29,19.78,16.29,60.5-2.33,94.24s-25.6,79.12,1.16,107.04
		c26.76,27.92,52.36,46.54,32.58,102.39c-19.78,55.85-40.72,41.89-6.98,86.1s-10.47,73.3-30.25,89.59
		c-19.78,16.29-44.21,17.45-46.54,80.28c-2.33,62.83,61.66,92.3,60.11,134.19c-1.55,41.89-31.03,71.36-10.86,107.04
		s29.47-1.55,1.55,107.04S1530.27,1650.32,1555.87,1703.06z"/>
	<path d="M1502.38,1756.74c-8.56,0-14.06-1.3-18.04-4.89c-5.26-4.76-6.33-12.4-6.33-23.19c0-3.13,0.05-6.48,0.11-10.18
		c0.4-28.6,1.08-76.49-16.36-214.95c-8.64-68.61-13.45-138.35-17.7-199.88c-5.4-78.13-9.65-139.84-19.12-159.4
		c-2.87-5.93-5.36-10.81-7.49-14.99c-11.11-21.83-13.12-25.76-8.01-56.38c5.71-34.33-2.35-83.38-6.9-100.47
		c-2.19-8.19-2.92-9.72-5.7-15.4c-2.95-6.05-7.9-16.18-18.55-42.22c-21.03-51.42-0.67-103.53,19.72-122.56
		c15.44-14.42,21.69-28.97,1.9-53.12c-22.3-27.27-29.01-52.3-20.54-76.53c7.61-21.74,13.82-58.04-5.96-146.43
		c-9.76-43.65-10.81-72.33-11.82-100.06c-1.03-28.13-2-54.71-12.56-94.05c-19.63-73-22.13-108.93-8.39-120.15
		c6.2-5.08,15.09-4.82,26.45,0.88c11.26,5.62,18.4,9.57,23.36,12.31c10,5.53,10.07,5.49,19.8,4.93l4.61-0.27
		c3.91-0.21,7.33-0.76,10.24-1.23c6.14-0.98,11.48-1.84,15.18,1.99c4.43,4.56,4.22,13.07-0.94,39.56
		c-3.47,17.76-2.75,29.69,2.2,36.5c5.99,8.21,18.46,9.7,34.28,11.6c2.9,0.35,5.41,0.62,7.89,0.87c25.11,2.61,48.83,5.07,53.42,53.29
		c1.13,11.88,1.72,21.02,2.19,28.34c1.42,22.29,1.68,26.31,13.09,40.17c18.08,21.95,17.28,64.65-1.87,99.33
		c-16.35,29.62-26.02,74.04,0.48,101.69c2.36,2.47,4.72,4.85,7.02,7.2c24.42,24.83,45.52,46.28,26.55,99.85
		c-6.63,18.69-13.33,29.68-18.22,37.69c-9.1,14.92-10.26,16.83,10.56,44.12c33.76,44.25-5.06,75.17-25.91,91.78l-5.06,4.08
		c-4.02,3.31-8.17,5.99-12.19,8.59c-15.89,10.28-30.91,19.99-32.69,68.35c-1.23,32.95,16.43,55.91,33.51,78.13
		c14.06,18.3,27.35,35.59,26.6,56.05c-0.61,16.67-5.34,31.02-9.92,44.92c-6.97,21.16-12.98,39.43-1.52,59.71
		c4.81,8.53,8.83,12.49,12.07,15.68c11.4,11.23,11.4,11.23-9.33,91.84l-0.75,2.9c-26.57,103.38-17.69,304.61,8.17,358.2
		c1.23,2.17,12.07,22.09,4.28,37.42c-4.56,8.97-14.25,14.28-28.8,15.77l-2.2,0.23C1519.86,1755.73,1509.94,1756.74,1502.38,1756.74z
		 M1351.36,207.37c-2.02,0-3.69,0.52-4.96,1.56c-9.98,8.15-6.14,45.41,11.41,110.74c10.84,40.34,11.82,67.42,12.87,96.09
		c1,27.33,2.02,55.58,11.62,98.41c20.27,90.64,13.67,128.53,5.66,151.42c-7.45,21.27-1.41,42.8,19.01,67.76
		c20.21,24.69,19.37,44.9-2.75,65.54c-16.03,14.96-37.61,63.31-17.51,112.46c10.54,25.77,15.4,35.73,18.3,41.68
		c2.92,5.98,3.91,7.99,6.33,17.04c4.7,17.7,13.02,68.53,7.07,104.32c-4.61,27.65-3.5,29.83,7.15,50.73
		c2.16,4.24,4.67,9.17,7.59,15.17c10.22,21.14,14.53,83.63,19.99,162.73c4.24,61.42,9.05,131.02,17.64,199.36
		c17.53,139.1,16.84,187.39,16.43,216.24c-0.05,3.65-0.1,6.96-0.1,10.05c0,9.55,0.96,14.31,3.32,16.44
		c4.46,4.05,18.52,2.61,41.82,0.21l2.2-0.22c11.26-1.16,18.53-4.8,21.61-10.82c5.84-11.47-4.02-28.74-4.13-28.92
		c-0.05-0.1-0.11-0.19-0.15-0.3c-27.1-55.82-36.41-257.43-8.86-364.57l0.74-2.9c19.43-75.54,19.43-75.54,11.77-83.09
		c-3.44-3.39-8.17-8.05-13.61-17.67c-13.45-23.79-6.52-44.8,0.81-67.05c4.37-13.28,8.9-27.02,9.46-42.39
		c0.64-17.19-11.11-32.49-24.71-50.18c-17.22-22.4-36.74-47.78-35.4-84.01c1.97-53.08,19.71-64.55,36.85-75.64
		c3.98-2.58,7.74-5,11.34-7.98l5.18-4.17c20.99-16.72,52.71-41.98,24.34-79.15c-22.77-29.86-22.55-35.59-11.08-54.38
		c4.69-7.68,11.1-18.2,17.4-35.99c17.07-48.22-0.34-65.92-24.46-90.43c-2.34-2.38-4.72-4.8-7.09-7.28
		c-29.93-31.22-19.71-80.05-1.87-112.38c17.15-31.08,18.38-70.24,2.8-89.16c-13.28-16.13-13.68-22.32-15.14-45.38
		c-0.46-7.24-1.04-16.29-2.16-28.05c-3.9-40.8-20.38-42.51-45.32-45.1c-2.51-0.26-5.08-0.53-7.71-0.84
		c-17.62-2.12-32.55-3.91-40.86-15.32c-6.61-9.08-7.82-22.93-3.79-43.58c1.38-7.08,5.59-28.63,3.33-31.52
		c-0.79-0.31-4.48,0.25-7.2,0.69c-3.18,0.51-6.92,1.11-11.21,1.33l-4.52,0.25c-12.03,0.69-12.93,0.49-24.75-6.05
		c-4.88-2.69-11.92-6.59-23.03-12.14C1358.32,208.55,1354.42,207.37,1351.36,207.37z"/>
	<path d="M652.24,1858.08c-0.11,0-0.22,0-0.33-0.01c-22.33-1.65-40.82-19.12-41.6-19.87c-1.82-1.74-1.87-4.61-0.15-6.42
		c1.75-1.8,4.61-1.87,6.44-0.15c0.16,0.16,16.96,15.98,35.97,17.37c2.51,0.19,4.39,2.36,4.21,4.87
		C656.6,1856.25,654.61,1858.08,652.24,1858.08z"/>
	<path class="st12" d="M520.37,1665.83l-25.6-34.9c0,0,48.87-549.16,62.83-723.68s11.63-225.71,11.63-225.71l27.92-16.29
		C597.16,665.24,585.53,1307.48,520.37,1665.83z"/>
	<polygon class="st12" points="462.2,1612.31 434.28,1598.35 504.09,1037.55 538.99,1037.55 	"/>
	<polygon class="st12" points="1632.65,1123.65 1655.92,1123.65 1632.65,894.83 1606.28,910.35 	"/>
	<path d="M1259.57,1711.49c-0.87,0-1.75-0.25-2.53-0.77c-11.48-7.65-10.14-13.84-9.46-15.55c0.93-2.32,3.58-3.47,5.9-2.54
		c2.02,0.81,3.14,2.9,2.82,4.95c0.19,0.53,1.19,2.51,5.79,5.58c2.09,1.39,2.65,4.22,1.26,6.31
		C1262.48,1710.78,1261.03,1711.49,1259.57,1711.49z M1256.05,1698.52L1256.05,1698.52L1256.05,1698.52z M1256.05,1698.5
		L1256.05,1698.5L1256.05,1698.5z"/>
	<path d="M1267.32,1674.26c-1.52,0-3.02-0.77-3.87-2.17l-6.2-10.09c-1.33-2.13-0.66-4.93,1.49-6.25c2.1-1.34,4.93-0.68,6.25,1.49
		l6.2,10.09c1.33,2.13,0.66,4.93-1.49,6.25C1268.96,1674.04,1268.14,1674.26,1267.32,1674.26z"/>
	<path d="M1207.6,1675.04c-1.35,0-2.69-0.6-3.59-1.76c-6.41-8.25-5.63-21.16-5.59-21.7c0.18-2.5,2.42-4.21,4.82-4.24
		c2.51,0.16,4.41,2.32,4.25,4.84c-0.18,2.76,0.15,10.96,3.7,15.53c1.54,1.98,1.18,4.84-0.81,6.38
		C1209.55,1674.72,1208.58,1675.04,1207.6,1675.04z"/>
	<path d="M1148.65,1659.53c-0.68,0-1.38-0.15-2.04-0.48c-7.42-3.72-12.41-14.17-12.96-15.35c-1.05-2.28-0.05-4.97,2.21-6.04
		c2.24-1.04,4.96-0.07,6.04,2.21c1.56,3.35,5.32,9.31,8.77,11.03c2.24,1.13,3.16,3.85,2.04,6.11
		C1151.92,1658.6,1150.32,1659.53,1148.65,1659.53z"/>
	<path d="M1201.39,1755.7c-0.12,0-0.26-0.01-0.4-0.01c-0.31-0.03-30.78-3.18-28.18-42.85c0.16-2.5,2.05-4.52,4.84-4.24
		c2.5,0.16,4.4,2.32,4.24,4.84c-2,30.57,19.04,33.09,19.93,33.18c2.49,0.25,4.32,2.46,4.09,4.95
		C1205.68,1753.94,1203.72,1755.7,1201.39,1755.7z"/>
	<path d="M1134.68,1761.91c-1.41,0-2.79-0.66-3.68-1.87c-0.64-0.87-15.68-21.94-13.27-60.37c0.16-2.5,2.41-4.51,4.82-4.25
		c2.5,0.15,4.41,2.31,4.25,4.82c-2.17,34.92,11.41,54.26,11.55,54.45c1.48,2.02,1.01,4.87-1.01,6.34
		C1136.54,1761.62,1135.6,1761.91,1134.68,1761.91z"/>
	<path d="M1071.08,1741.73c-2.51,0-4.55-2.04-4.55-4.55c0-3.25,0.29-32.2,10.32-44.72c1.59-1.97,4.46-2.27,6.4-0.71
		c1.97,1.57,2.28,4.44,0.71,6.4c-6.83,8.51-8.32,31.06-8.32,39.03C1075.63,1739.7,1073.59,1741.73,1071.08,1741.73z"/>
	<path d="M1032.3,1730.88c-2.47,0-4.5-1.98-4.55-4.46c-0.08-4.15-0.52-40.86,9.62-52.7c1.64-1.9,4.51-2.1,6.42-0.49
		c1.9,1.64,2.12,4.51,0.49,6.42c-5.96,6.94-7.72,32.25-7.43,46.58c0.04,2.51-1.95,4.59-4.46,4.65
		C1032.36,1730.88,1032.33,1730.88,1032.3,1730.88z"/>
	<path d="M991.19,1709.16c-2.26,0-4.21-1.67-4.51-3.95c-0.19-1.49-4.74-36.59,5.17-54.75c1.2-2.21,3.98-3.05,6.16-1.82
		c2.21,1.2,3.02,3.96,1.82,6.16c-8.5,15.59-4.17,48.86-4.13,49.2c0.33,2.49-1.42,4.78-3.91,5.11
		C991.59,1709.15,991.39,1709.16,991.19,1709.16z"/>
	<path d="M933.01,1682.79c-2.45,0-4.47-1.94-4.55-4.4c-0.03-1.07-0.6-26.28,18.48-44.54c1.8-1.75,4.69-1.67,6.42,0.14
		c1.75,1.82,1.68,4.69-0.14,6.42c-16.18,15.5-15.68,37.46-15.66,37.68c0.07,2.51-1.9,4.62-4.4,4.7
		C933.11,1682.79,933.06,1682.79,933.01,1682.79z"/>
	<path d="M881.83,1688.99c-2.36,0-4.36-1.82-4.54-4.21c-0.14-1.8-3.01-44.35,25.04-57.95c2.27-1.08,4.99-0.16,6.07,2.1
		c1.11,2.26,0.16,4.97-2.1,6.07c-22.47,10.91-19.95,48.71-19.93,49.09c0.18,2.5-1.69,4.69-4.2,4.88
		C882.05,1688.98,881.94,1688.99,881.83,1688.99z"/>
	<path d="M760.05,1614.53c-0.41,0-0.83-0.05-1.24-0.18c-2.42-0.68-3.81-3.21-3.13-5.62c0.4-1.42,10.1-34.66,29.58-43.97
		c2.26-1.08,4.96-0.14,6.05,2.15c1.09,2.26,0.12,4.97-2.15,6.05c-13.12,6.27-22.3,29.74-24.74,38.25
		C763.85,1613.24,762.03,1614.53,760.05,1614.53z"/>
	<path d="M815.9,1631.59c-0.14,0-0.27-0.01-0.41-0.03c-2.5-0.22-4.35-2.43-4.11-4.93l0.77-8.53c0.22-2.5,2.45-4.31,4.93-4.11
		c2.5,0.22,4.35,2.43,4.11,4.93l-0.77,8.53C820.22,1629.81,818.24,1631.59,815.9,1631.59z"/>
	<path d="M921.38,1361.67c-0.83,0-1.67-0.23-2.41-0.7c-2.13-1.33-2.79-4.14-1.45-6.26l3.88-6.2c1.34-2.15,4.18-2.75,6.26-1.45
		c2.13,1.33,2.79,4.14,1.45,6.26l-3.88,6.2C924.38,1360.9,922.9,1361.67,921.38,1361.67z"/>
	<path d="M897.34,1313.58c-0.41,0-0.82-0.05-1.23-0.18c-2.42-0.67-3.83-3.18-3.14-5.6l6.97-24.82c0.67-2.42,3.18-3.85,5.6-3.14
		c2.42,0.67,3.83,3.18,3.14,5.6l-6.97,24.82C901.16,1312.26,899.34,1313.58,897.34,1313.58z"/>
	<path d="M972.58,1216.62c-1.74,0-3.4-1.01-4.15-2.71c-16.25-36.57,17.37-96.93,18.81-99.48c1.23-2.2,4.05-2.95,6.19-1.72
		c2.2,1.23,2.97,4,1.74,6.19c-0.33,0.59-32.81,58.92-18.42,91.32c1.03,2.3-0.01,4.97-2.31,6
		C973.82,1216.5,973.2,1216.62,972.58,1216.62z"/>
	<path d="M934.42,1206.63c-1.65,0-3.35-0.27-5.02-0.94c-7.05-2.8-10.91-11.03-11.78-25.13c-2.39-38.25,29.56-89.72,30.93-91.9
		c1.34-2.15,4.17-2.73,6.27-1.44c2.12,1.34,2.77,4.14,1.43,6.27c-0.31,0.51-31.76,51.17-29.56,86.48c0.6,9.66,2.82,15.95,6.05,17.25
		c3.65,1.45,9.57-2.61,11.92-4.78c1.85-1.69,4.7-1.61,6.42,0.25c1.69,1.83,1.6,4.7-0.23,6.41
		C949.89,1200,942.51,1206.63,934.42,1206.63z"/>
	<path d="M889.72,1188.26c-2.64,0-5.32-0.57-7.8-2.08c-7.54-4.59-10.06-15.59-7.69-33.65c6.27-47.85,50.08-112.49,51.93-115.23
		c1.43-2.06,4.24-2.6,6.33-1.19c2.06,1.42,2.6,4.25,1.19,6.33c-0.45,0.64-44.44,65.59-50.43,111.26
		c-2.47,18.9,1.54,23.56,3.39,24.68c4.07,2.51,11.9-1.74,14.32-3.4c2.08-1.45,4.88-0.92,6.33,1.13c1.43,2.06,0.93,4.88-1.12,6.33
		C905.08,1183.21,897.56,1188.26,889.72,1188.26z"/>
	<path d="M862.42,1244.54c-2.05,0-3.91-1.39-4.4-3.49c-0.26-1.03-5.93-25.48,10.91-38.76c1.98-1.53,4.84-1.22,6.38,0.75
		c1.56,1.97,1.22,4.82-0.75,6.38c-12.23,9.65-7.75,29.3-7.69,29.51c0.57,2.43-0.93,4.89-3.38,5.47
		C863.14,1244.5,862.78,1244.54,862.42,1244.54z"/>
	<path d="M824.43,1179.39c-1.9,0-3.68-1.2-4.32-3.12c-0.12-0.38-12.25-38.17,20.05-64.67c1.95-1.59,4.8-1.3,6.4,0.63
		c1.6,1.94,1.31,4.81-0.63,6.4c-27.51,22.58-17.29,54.45-17.18,54.78c0.79,2.38-0.49,4.96-2.88,5.75
		C825.39,1179.31,824.91,1179.39,824.43,1179.39z"/>
	<path d="M865.54,1083.22c-0.21,0-0.41-0.01-0.61-0.04c-2.5-0.34-4.24-2.64-3.9-5.13c0.34-2.49,3.65-24.49,14.01-33.14
		c8.61-7.16,19.08-24.29,19.19-24.46c1.28-2.15,4.1-2.83,6.25-1.52c2.15,1.3,2.83,4.1,1.52,6.25c-0.45,0.75-11.36,18.59-21.13,26.73
		c-6.52,5.44-10.02,21.61-10.81,27.37C869.74,1081.57,867.78,1083.22,865.54,1083.22z"/>
	<path d="M794.94,1149.13c-1.42,0-2.83-0.67-3.7-1.93c-5.96-8.47-12.14-28.45,7.13-43.45c1.94-1.52,4.82-1.2,6.38,0.81
		c1.54,1.98,1.18,4.84-0.81,6.38c-16.88,13.13-6.51,29.25-5.26,31.05c1.42,2.05,0.92,4.89-1.13,6.31
		C796.76,1148.87,795.84,1149.13,794.94,1149.13z"/>
	<path d="M828.35,1043.16c-1.85,0-3.59-0.45-5.13-1.52c-6.26-4.39-3.7-14.81-0.78-23.4c11.99-35.17,46.07-58.71,47.52-59.69
		c2.05-1.42,4.87-0.9,6.31,1.2c1.41,2.07,0.87,4.9-1.19,6.32c-0.33,0.23-33.05,22.86-44.03,55.1c-3.65,10.71-2.38,13.24-2.36,13.27
		c1.2-0.01,7.04-3.05,11.49-6.63c1.97-1.59,4.84-1.27,6.4,0.7c1.57,1.95,1.27,4.81-0.68,6.38
		C842.39,1037.72,834.79,1043.16,828.35,1043.16z"/>
	<path d="M803.48,963.76c-1.33,0-2.65-0.59-3.55-1.71c-1.57-1.97-1.24-4.82,0.71-6.4l15.53-12.41c1.97-1.55,4.81-1.26,6.4,0.71
		c1.57,1.97,1.24,4.82-0.71,6.4l-15.53,12.41C805.47,963.44,804.48,963.76,803.48,963.76z"/>
	<path d="M812.8,929.64c-1.16,0-2.32-0.44-3.21-1.33c-1.78-1.78-1.78-4.65,0-6.43l7.75-7.76c1.78-1.79,4.65-1.78,6.42-0.01
		c1.78,1.78,1.78,4.65,0,6.43l-7.75,7.76C815.12,929.19,813.96,929.64,812.8,929.64z"/>
	<path d="M772.84,697.74c-12.92,0-22.95-3.9-29.92-11.64c-18.42-20.48-7.5-59.98-7.02-61.65c0.67-2.41,3.14-3.84,5.62-3.13
		c2.41,0.68,3.81,3.19,3.13,5.61c-0.1,0.36-10.02,36.37,5.06,53.1c7.01,7.79,18.83,10.33,35.17,7.5c2.75-0.41,4.84,1.25,5.26,3.71
		c0.42,2.47-1.23,4.82-3.7,5.25C781.59,697.32,777.06,697.74,772.84,697.74z"/>
	<path d="M779.82,809.41c-1.9,0-3.68-1.21-4.32-3.12c-6.78-20.37-15.94-38.78-16.03-38.96c-1.12-2.25-0.21-4.98,2.04-6.1
		c2.26-1.14,4.97-0.22,6.11,2.03c0.38,0.77,9.53,19.15,16.52,40.16c0.79,2.38-0.51,4.95-2.88,5.75
		C780.78,809.33,780.3,809.41,779.82,809.41z"/>
	<path d="M791.6,665.16c-28.62,0-31.34-46.54-31.43-48.55c-0.14-2.51,1.79-4.64,4.31-4.77c2.54-0.3,4.65,1.79,4.77,4.31
		c0.03,0.4,2.34,39.91,22.47,39.91c0.3,0,0.59-0.03,0.92-0.02c2.42,0,4.43,1.91,4.54,4.35c0.12,2.51-1.82,4.63-4.33,4.75
		C792.42,665.15,792.01,665.16,791.6,665.16z"/>
	<path d="M800.77,609.29c-0.1,0-0.18-0.01-0.27-0.01c-2.51-0.15-4.41-2.31-4.26-4.82c3.27-53.4-20.04-71.51-20.28-71.68
		c-2-1.5-2.42-4.35-0.94-6.36c1.5-2.02,4.32-2.45,6.33-0.98c1.12,0.82,27.57,20.75,23.97,79.58
		C805.16,607.43,803.17,609.29,800.77,609.29z"/>
	<path d="M828.7,425.46c-1.56,0-3.09-0.81-3.92-2.26c-7.13-12.21-19.52-16.55-19.64-16.59c-2.38-0.81-3.65-3.39-2.86-5.76
		c0.81-2.38,3.38-3.68,5.74-2.86c0.64,0.21,15.7,5.37,24.6,20.64c1.27,2.17,0.53,4.95-1.63,6.22
		C830.27,425.26,829.47,425.46,828.7,425.46z"/>
	<path d="M849.63,370.78c-2.13,0-4.03-1.5-4.46-3.66c-3.81-19.05-16.02-19.6-16.54-19.61c-2.49-0.07-4.5-2.13-4.46-4.61
		c0.03-2.49,2.02-4.49,4.51-4.49c0.82,0,20.08,0.31,25.39,26.94c0.49,2.46-1.11,4.86-3.57,5.35
		C850.22,370.75,849.92,370.78,849.63,370.78z"/>
	<path d="M728.93,829.04c-3.43,0-7.12-1.39-11.06-4.18c-2.05-1.45-2.54-4.29-1.09-6.34c1.46-2.06,4.32-2.53,6.34-1.08
		c2.17,1.52,5.14,3.16,7.15,2.2c3.5-1.69,5.56-10.42,5.85-15.79c0.12-2.51,2.32-4.48,4.77-4.3c2.51,0.13,4.44,2.26,4.31,4.77
		c-0.1,1.91-1.23,18.79-10.95,23.5C732.56,828.64,730.79,829.04,728.93,829.04z"/>
	<path d="M1557.42,1299.62c-0.51,0-1.03-0.08-1.52-0.26c-37.75-13.42-34.85-56.94-34.82-57.39c0.2-2.49,2.12-4.15,4.88-4.18
		c2.5,0.19,4.37,2.38,4.2,4.88c-0.11,1.5-2.34,37.05,28.78,48.11c2.38,0.85,3.61,3.44,2.77,5.81
		C1561.04,1298.46,1559.29,1299.62,1557.42,1299.62z"/>
	<path d="M1705.95,1088.06c-1.6,0-3.14-0.85-3.98-2.35c-32.62-58.84-63.24-301.4-64.52-311.7c-0.31-2.49,1.45-4.77,3.95-5.08
		c2.64-0.42,4.76,1.47,5.07,3.94c0.31,2.51,31.68,251.11,63.46,308.43c1.22,2.19,0.42,4.96-1.78,6.18
		C1707.45,1087.87,1706.7,1088.06,1705.95,1088.06z"/>
	<path d="M1663.48,909.47c-0.59,0-1.18-0.12-1.75-0.36c-2.32-0.97-3.42-3.64-2.45-5.95c15.85-37.93,28.06-143.14,28.18-144.2
		c0.29-2.48,2.39-4.31,5.04-4c2.5,0.29,4.29,2.54,4,5.04c-0.51,4.37-12.49,107.55-28.84,146.67
		C1666.96,908.42,1665.26,909.47,1663.48,909.47z"/>
	<path d="M1621.8,1625.39c-0.67,0-1.35-0.15-1.98-0.46c-2.27-1.09-3.21-3.81-2.1-6.07c0.55-1.13,13.64-27.98,25.69-40
		c1.78-1.78,4.65-1.78,6.42,0c1.78,1.78,1.78,4.66,0,6.42c-10.96,10.96-23.81,37.28-23.94,37.54
		C1625.11,1624.44,1623.48,1625.39,1621.8,1625.39z"/>
	<path d="M1421.68,954.46c-1.38,0-2.75-0.63-3.64-1.82c-6.93-9.25-17.17-4.31-17.59-4.09c-2.26,1.11-4.97,0.22-6.11-2.03
		c-1.12-2.25-0.2-4.98,2.04-6.1c6-3.01,19.79-5.46,28.93,6.77c1.52,2.01,1.11,4.86-0.9,6.36
		C1423.59,954.16,1422.63,954.46,1421.68,954.46z"/>
	<path d="M1386.77,924.98c-0.14,0-0.29-0.01-0.44-0.02c-2.5-0.25-4.33-2.47-4.09-4.97c2.46-25.45,31.94-53.64,33.2-54.83
		c1.82-1.72,4.72-1.64,6.42,0.17c1.74,1.82,1.65,4.7-0.16,6.43c-0.29,0.27-28.28,27.05-30.41,49.11
		C1391.08,923.22,1389.09,924.98,1386.77,924.98z"/>
	<path d="M1426.34,838.87c-0.41,0-0.83-0.05-1.26-0.18c-2.41-0.69-3.8-3.2-3.12-5.62c0.27-0.94,6.81-23.21,23.58-29.48
		c8.88-3.33,18.66-1.56,29.04,5.2c2.1,1.37,2.69,4.19,1.33,6.29c-1.37,2.13-4.22,2.71-6.3,1.33c-7.82-5.11-14.84-6.58-20.86-4.31
		c-12.46,4.63-17.99,23.28-18.04,23.47C1430.14,837.58,1428.32,838.87,1426.34,838.87z"/>
	<path d="M1415.09,784.59c-0.94,0-1.89-0.29-2.71-0.9c-2.02-1.49-2.45-4.34-0.96-6.36c1.65-2.25,40.77-54.71,70.89-42.63
		c2.32,0.94,3.46,3.58,2.53,5.91c-0.93,2.32-3.55,3.46-5.92,2.54c-19.45-7.8-50.08,25.93-60.18,39.59
		C1417.85,783.95,1416.48,784.59,1415.09,784.59z"/>
	<path d="M1407.72,742.7c-0.57,0-1.16-0.11-1.74-0.35c-2.32-0.96-3.43-3.61-2.47-5.94c20.53-49.73,37.68-59.98,38.4-60.39
		c2.17-1.23,4.96-0.49,6.2,1.69c1.23,2.16,0.51,4.91-1.64,6.17c-0.38,0.24-15.69,10.25-34.55,55.99
		C1411.21,741.64,1409.51,742.7,1407.72,742.7z"/>
	<path d="M1388.33,714.77c-1.04,0-2.08-0.35-2.92-1.07c-1.93-1.61-2.17-4.48-0.55-6.4c0.16-0.2,17.29-20.88,52.17-88.36
		c1.15-2.22,3.92-3.08,6.14-1.95c2.23,1.15,3.1,3.9,1.95,6.13c-35.52,68.7-52.6,89.2-53.31,90.04
		C1390.9,714.23,1389.63,714.77,1388.33,714.77z"/>
	<path d="M1380.57,688.41c-0.85,0-1.71-0.24-2.47-0.73c-2.1-1.36-2.71-4.18-1.35-6.29c23.64-36.59,42.26-72.93,42.45-73.29
		c1.12-2.24,3.9-3.12,6.11-1.98c2.24,1.14,3.13,3.88,1.98,6.12c-0.18,0.36-19,37.09-42.89,74.08
		C1383.52,687.67,1382.06,688.41,1380.57,688.41z"/>
	<path d="M1385.09,543.36c-0.66,0-1.31-0.14-1.94-0.44c-2.27-1.07-3.24-3.77-2.17-6.05c1.18-2.5,28.66-60.07,65.82-60.07
		c0.77,0,1.54,0.02,2.34,0.08c2.5,0.16,4.4,2.33,4.24,4.83c-0.15,2.51-1.98,4.41-4.84,4.24c-31.94-2-59.07,54.22-59.33,54.79
		C1388.42,542.39,1386.8,543.36,1385.09,543.36z"/>
	<path d="M1396.06,485.18c-2.28,0-4.25-1.72-4.51-4.05c-0.04-0.38-3.87-38.77,31.89-49.83c2.36-0.74,4.95,0.62,5.69,3
		c0.74,2.4-0.6,4.95-3.01,5.69c-28.5,8.82-25.65,38.88-25.52,40.15c0.26,2.49-1.54,4.74-4.03,5.01
		C1396.41,485.17,1396.23,485.18,1396.06,485.18z"/>
	<path d="M1371.27,354.09c-1.52,0-2.99-0.75-3.85-2.12c-1.34-2.13-0.71-4.93,1.41-6.27c1.69-1.07,16.84-10.37,28.59-6.7
		c2.41,0.74,3.74,3.28,3.01,5.69c-0.74,2.4-3.23,3.77-5.69,3.01c-6.6-2.04-17.44,3.44-21.06,5.71
		C1372.93,353.87,1372.09,354.09,1371.27,354.09z"/>
	<path d="M1354.07,312.99c-0.26,0-0.52-0.03-0.79-0.07c-2.47-0.44-4.13-2.79-3.69-5.28c0.15-0.82,3.72-20.22,17.89-26.06
		c8.66-3.59,18.92-1.27,30.46,6.85c2.05,1.45,2.54,4.28,1.09,6.33c-1.46,2.07-4.29,2.53-6.34,1.1c-8.83-6.22-16.14-8.2-21.74-5.88
		c-9.46,3.9-12.37,19.09-12.4,19.24C1358.15,311.43,1356.24,312.99,1354.07,312.99z"/>
	<path d="M1366.61,421.58c-1.98,0-3.8-1.31-4.37-3.3c-0.68-2.41,0.71-4.93,3.13-5.62l10.85-3.1c2.38-0.69,4.92,0.71,5.62,3.12
		c0.68,2.41-0.71,4.93-3.13,5.62l-10.85,3.1C1367.45,421.52,1367.02,421.58,1366.61,421.58z"/>
	<path d="M1372.04,475.1c-1.94,0-3.74-1.26-4.35-3.21c-0.74-2.41,0.6-4.95,3.01-5.69l10.09-3.1c2.45-0.72,4.95,0.61,5.69,3.01
		c0.74,2.41-0.6,4.95-3.01,5.69l-10.09,3.1C1372.93,475.03,1372.47,475.1,1372.04,475.1z"/>
	<g>
		<path class="st13" d="M1021.44,304.95c-3,0-5.43,2.43-5.43,5.43c0,3,2.43,5.43,5.43,5.43c3,0,5.43-2.43,5.43-5.43
			C1026.87,307.38,1024.44,304.95,1021.44,304.95z"/>
		<circle class="st13" cx="1007.68" cy="297" r="3.3"/>
	</g>
	<path d="M1251.49,273.74c-15.42,0-27.91,12.5-27.91,27.91c0,15.41,12.5,27.91,27.91,27.91s27.91-12.5,27.91-27.91
		C1279.4,286.24,1266.91,273.74,1251.49,273.74z"/>
	<g>
		<path class="st13" d="M1262.35,303.6c-3,0-5.43,2.43-5.43,5.43c0,3,2.43,5.43,5.43,5.43c3,0,5.43-2.43,5.43-5.43
			C1267.78,306.03,1265.35,303.6,1262.35,303.6z"/>
		<circle class="st13" cx="1248.58" cy="295.64" r="3.3"/>
	</g>
	<g>
		<path class="st14" d="M540.54,921.21c0,0-56.62,13.19-38.01-41.11c0,0,4.65-45.76,19.39-45.76c14.74,0,32.58,33.35,32.58,33.35
			L540.54,921.21z"/>
		<path d="M527.01,925.08c-8.35,0-18.52-1.69-24.86-8.71c-7.04-7.8-7.69-20.27-1.94-37.07c0.38-4.37,5.25-47.42,21.72-47.42
			c15.74,0,32.84,31.1,34.74,34.65c0.29,0.54,0.37,1.18,0.2,1.78l-13.97,53.52c-0.22,0.87-0.93,1.56-1.8,1.76
			C540.58,923.71,534.53,925.08,527.01,925.08z M540.54,921.2h0.05H540.54z M521.93,836.78c-9.12,0-15.24,26.73-16.96,43.56
			c-5.25,15.53-4.93,26.36,0.82,32.74c8.64,9.58,27.43,6.98,32.77,6.02l13.34-51.09C546.69,858.56,532.48,836.78,521.93,836.78z"/>
	</g>
	<g>
		<path class="st14" d="M542.09,749.01c0,0-8.53,35.68-26.37,30.25c-17.84-5.43-5.43-21.72-5.43-21.72s-24.82,3.88-17.84-20.94
			c6.98-24.82,44.21-22.49,44.21-22.49L542.09,749.01z"/>
		<path d="M519.38,782.27c-1.45,0-2.9-0.22-4.37-0.67c-5.79-1.76-9.42-4.8-10.78-9.04c-1.44-4.44,0.07-9.12,1.64-12.37
			c-4.09-0.13-9.87-1.15-13.58-5.35c-3.79-4.26-4.52-10.62-2.2-18.91c7.46-26.45,45.17-24.37,46.73-24.27
			c1.15,0.08,2.09,0.94,2.27,2.07l5.43,34.91c0.05,0.31,0.04,0.64-0.04,0.94c-0.23,0.97-5.81,23.79-17.82,30.68
			C524.31,781.6,521.87,782.27,519.38,782.27z M510.3,755.1c0.85,0,1.65,0.44,2.1,1.19c0.51,0.86,0.45,1.94-0.15,2.74
			c-1.42,1.87-4.77,7.68-3.36,12.04c0.85,2.62,3.39,4.59,7.54,5.85c2.72,0.84,5.25,0.54,7.78-0.9c9.35-5.36,14.56-23.97,15.38-27.12
			l-5.03-32.39c-7.76,0.07-34.26,1.26-39.76,20.75c-1.85,6.58-1.46,11.4,1.15,14.34c4.35,4.89,13.9,3.55,13.97,3.53
			C510.05,755.1,510.17,755.1,510.3,755.1z"/>
	</g>
	<g>
		<path class="st14" d="M237.65,1340.64c0,0,4.65,38.98,18.03,32.58c13.38-6.4,14.54-22.11,14.54-22.11s21.52,1.16,23.85-24.43
			s-36.07-50.61-36.07-50.61L237.65,1340.64z"/>
		<path d="M252.78,1376.37c-1.38,0-2.73-0.36-4.02-1.07c-9.83-5.4-13.19-31.43-13.54-34.39c-0.04-0.34-0.01-0.7,0.1-1.03
			l20.35-64.58c0.23-0.72,0.79-1.31,1.52-1.57c0.7-0.25,1.52-0.15,2.16,0.26c1.61,1.05,39.61,26.13,37.16,52.89
			c-2.04,22.48-18.1,26.04-24.14,26.57c-0.86,4.84-4.09,16.44-15.63,21.96C255.42,1376.06,254.08,1376.37,252.78,1376.37z
			 M240.16,1340.87c1.28,10.24,5.32,27.05,10.97,30.15c1.09,0.63,2.19,0.62,3.5-0.01c11.89-5.69,13.13-19.94,13.15-20.09
			c0.11-1.27,1.19-2.26,2.46-2.26c0.05,0,0.14,0.01,0.52,0.01c2.84,0,18.94-0.96,20.88-22.21c1.82-20.01-23.82-40.34-32.29-46.48
			L240.16,1340.87z"/>
	</g>
	<g>
		<path class="st14" d="M307.46,1189.39c0,0-20.94,38.98,16.87,41.3c37.81,2.33,36.65-58.17,36.65-58.17s15.13-12.8,10.47-33.16
			c-4.65-20.36-30.83-29.09-30.83-29.09L307.46,1189.39z"/>
		<path d="M326.44,1233.2c-0.74,0-1.49-0.03-2.26-0.07c-11.04-0.68-18.55-4.44-22.3-11.19c-7.19-12.9,2.43-31.82,3.38-33.61
			l33.11-79.01c0.49-1.19,1.82-1.75,3.03-1.38c1.12,0.37,27.53,9.42,32.45,30.87c4.31,18.87-7.07,31.53-10.4,34.77
			c-0.03,6.31-1,36.65-16.47,51.5C341.35,1230.48,334.44,1233.2,326.44,1233.2z M341.96,1113.41l-32.24,76.92
			c-0.03,0.07-0.05,0.15-0.1,0.22c-0.1,0.18-9.55,18.09-3.46,29.03c2.88,5.18,9.05,8.09,18.31,8.66c7.57,0.48,13.98-1.78,19.11-6.7
			c15.43-14.79,14.95-48.64,14.95-48.98c-0.01-0.72,0.3-1.43,0.86-1.9c0.57-0.49,13.91-12.16,9.66-30.75
			C365.52,1124.42,348.07,1115.94,341.96,1113.41z M307.47,1189.38h0.05H307.47z"/>
	</g>
	<g>
		<path class="st14" d="M386.57,1035.23c0,0-1.75,40.72,18.62,36.65s19.2-25.01,19.2-25.01s15.13,14.54,23.85-8.73
			c8.73-23.27,12.8-50.61,9.31-51.77c-3.49-1.16-7.56-6.98-18.62,5.82c-11.05,12.8-16.29,15.71-13.96,13.96
			c2.33-1.75,19.78-34.32,5.82-44.21C416.83,952.04,386.57,1035.23,386.57,1035.23z"/>
		<path d="M402.4,1074.61c-3.25,0-6.16-1.07-8.66-3.21c-10.63-9.12-9.65-35.18-9.61-36.29c0.01-0.25,0.05-0.49,0.15-0.72
			c2.61-7.2,26.02-70.46,41.74-75.37c2.23-0.66,4.36-0.4,6.19,0.91c4.14,2.94,6.3,7.67,6.38,14.07c0.1,6.33-1.89,13.57-4.32,19.76
			c0.89-0.98,1.82-2.04,2.8-3.18c9.73-11.28,15.32-9.64,19.86-7.21c0.49,0.26,0.94,0.52,1.39,0.67c0.63,0.21,1.5,0.72,2.09,1.97
			c2.83,5.92-2.06,32.16-9.88,52.99c-3.14,8.36-7.52,13.24-13.04,14.5c-4.25,0.98-8.21-0.51-10.96-2.08
			c-0.97,7-4.95,19.68-20.87,22.86C404.54,1074.5,403.45,1074.61,402.4,1074.61z M389,1035.7c-0.25,7.16,0.71,25.82,7.91,31.98
			c2.15,1.8,4.65,2.43,7.79,1.79c17.99-3.59,17.27-21.7,17.23-22.48c-0.05-1,0.52-1.93,1.42-2.34c0.92-0.42,2-0.25,2.72,0.44
			c0.05,0.05,5.21,4.84,10.35,3.62c3.8-0.87,7-4.73,9.51-11.44c8.21-21.88,11.48-44.66,10.18-48.83c-0.48-0.21-0.98-0.47-1.52-0.76
			c-2.69-1.46-5.84-3.14-13.82,6.1c-3.2,3.7-9.83,11.12-14.01,14.03c-0.12,0.12-0.23,0.22-0.33,0.29c0.04-0.04,0.08-0.1,0.12-0.15
			c-1.18,0.79-2.15,1.22-2.77,1.03c-0.9-0.25-1.6-0.98-1.78-1.9c-0.3-1.56,0.82-2.39,1.49-2.88c1.68-1.76,11.21-19.47,10.1-31.77
			c-0.36-3.94-1.75-6.72-4.25-8.49c-0.42-0.29-0.96-0.51-1.89-0.23C417.43,966.83,398.61,1009.36,389,1035.7z"/>
	</g>
	<g>
		<path class="st14" d="M464.53,914.81c0,0,1.75,58.76,2.33,62.83c0.58,4.07-30.83-5.24-27.34-28.51S464.53,914.81,464.53,914.81z"
			/>
		<path d="M465.11,980.98c-3.9,0-9.89-2.4-14.46-5.36c-5.99-3.88-15.72-12.53-13.56-26.86c3.62-24.23,25.39-35.66,26.31-36.14
			c0.75-0.39,1.64-0.36,2.36,0.07c0.72,0.43,1.18,1.2,1.2,2.04c0.7,23.57,1.9,59.67,2.3,62.56c0.18,1.21-0.36,2.38-1.41,3.05
			C467.18,980.79,466.22,980.98,465.11,980.98z M464.42,977.97c0.01,0.01,0.01,0.01,0.01,0.01
			C464.43,977.98,464.43,977.98,464.42,977.97z M462.2,919.13c-5.97,4.11-17.84,14.18-20.27,30.35c-1.07,7.09,1.31,13.38,7.07,18.7
			c5.52,5.09,12.31,7.47,15.27,7.88C463.69,967,462.6,932.02,462.2,919.13z"/>
	</g>
	<path d="M265.58,1322.72c-0.63,0-1.26-0.23-1.74-0.71l-8.15-8.15c-0.96-0.96-0.96-2.51,0-3.47c0.96-0.96,2.51-0.96,3.47,0
		l8.15,8.15c0.96,0.96,0.96,2.51,0,3.47C266.83,1322.49,266.21,1322.72,265.58,1322.72z"/>
	<path d="M306.1,1223.63c-0.51,0-1.03-0.15-1.46-0.48c-1.08-0.81-1.31-2.34-0.51-3.43l18.81-25.41c0.81-1.07,2.35-1.31,3.43-0.51
		c1.08,0.81,1.31,2.34,0.51,3.43l-18.81,25.41C307.59,1223.29,306.85,1223.63,306.1,1223.63z"/>
	<path d="M341.2,1185.43c-0.77,0-1.52-0.36-2-1.03l-11.63-16.29c-0.7-0.97-0.59-2.31,0.26-3.16l13.97-13.95
		c0.96-0.96,2.51-0.96,3.47,0c0.96,0.96,0.96,2.51,0,3.47l-12.51,12.48l9.18,12.86l17.89-9.46c1.22-0.68,2.68-0.18,3.31,1.01
		c0.64,1.2,0.18,2.68-1.01,3.31l-19.79,10.47C341.97,1185.34,341.58,1185.43,341.2,1185.43z"/>
	<g>
		<g>
			<path class="st14" d="M466.85,873.5c0,0-222.22,349.04-268.76,481.68l26.2,20.78c10.8-23.58,171.89-373.97,247.21-459.41
				L466.85,873.5z"/>
			<path d="M224.29,1378.41c-0.55,0-1.08-0.18-1.52-0.53l-26.2-20.79c-0.82-0.64-1.13-1.74-0.79-2.72
				c46.1-131.39,266.78-478.69,269.01-482.18c0.56-0.88,1.61-1.29,2.62-1.07c1.01,0.24,1.76,1.09,1.87,2.12l4.66,43.05
				c0.08,0.69-0.14,1.37-0.6,1.89c-74.01,83.96-229.36,420.69-246.82,458.82c-0.31,0.68-0.93,1.18-1.65,1.35
				C224.67,1378.4,224.48,1378.41,224.29,1378.41z M200.99,1354.34l22.37,17.77c22.73-49.45,172.44-372.38,245.59-456.37
				l-3.79-35.01C435.91,927.05,244.72,1231.83,200.99,1354.34z"/>
		</g>
	</g>
	<g>
		<path class="st14" d="M174.82,1283.05c0,0,198.95-351.37,294.36-481.68l-5.82-17.45c0,0-252.47,357.19-299.01,484L174.82,1283.05z
			"/>
		<path d="M174.83,1285.49c-0.81,0-1.56-0.38-2.01-1.05l-10.48-15.13c-0.46-0.66-0.56-1.49-0.29-2.24
			c46.13-125.67,296.79-480.99,299.32-484.57c0.53-0.75,1.42-1.09,2.35-1.01c0.92,0.14,1.68,0.77,1.97,1.65l5.82,17.45
			c0.25,0.75,0.12,1.58-0.34,2.22c-94.23,128.71-292.23,477.92-294.21,481.43c-0.41,0.74-1.18,1.2-2.02,1.24
			C174.9,1285.49,174.87,1285.49,174.83,1285.49z M167.08,1267.57l7.54,10.88c20.71-36.44,202.17-354.65,291.84-477.51l-3.9-11.65
			C434.92,828.67,211.43,1148.71,167.08,1267.57z"/>
	</g>
	<g>
		<polygon class="st14" points="533.56,980.15 527.8,685.02 556.83,643.52 559.16,961.54 		"/>
		<path d="M533.56,982.6c-0.37,0-0.75-0.08-1.09-0.25c-0.82-0.41-1.34-1.23-1.35-2.15l-5.75-295.14c-0.01-0.52,0.14-1.03,0.44-1.45
			l29.03-41.49c0.62-0.88,1.79-1.25,2.73-0.94c1.03,0.31,1.72,1.25,1.72,2.32l2.32,318.02c0.01,0.79-0.37,1.54-1.01,2l-25.6,18.61
			C534.57,982.45,534.06,982.6,533.56,982.6z M530.26,685.77l5.64,289.64l20.79-15.12l-2.26-309.08L530.26,685.77z"/>
	</g>
	<path d="M529.68,709.57c-0.77,0-1.52-0.36-2-1.03c-0.78-1.1-0.53-2.63,0.57-3.42l27.16-19.39c1.07-0.8,2.62-0.53,3.42,0.57
		c0.78,1.1,0.53,2.63-0.57,3.42l-27.16,19.39C530.67,709.43,530.17,709.57,529.68,709.57z"/>
	<path d="M531.23,770.85c-0.75,0-1.5-0.35-1.98-1.01c-0.79-1.09-0.55-2.62,0.55-3.42l25.98-18.81c1.08-0.79,2.61-0.57,3.42,0.55
		c0.79,1.09,0.55,2.62-0.55,3.42l-25.98,18.81C532.23,770.7,531.74,770.85,531.23,770.85z"/>
	<path d="M530.85,814.87c-0.78,0-1.54-0.37-2.02-1.07c-0.77-1.11-0.48-2.64,0.64-3.4l26.36-18.03c1.13-0.75,2.64-0.47,3.4,0.64
		c0.77,1.11,0.48,2.64-0.64,3.4l-26.36,18.03C531.81,814.73,531.33,814.87,530.85,814.87z"/>
	<path d="M532.4,864.32c-0.75,0-1.5-0.34-1.98-1c-0.79-1.09-0.56-2.62,0.53-3.42l25.98-19c1.07-0.81,2.62-0.58,3.43,0.53
		c0.79,1.09,0.56,2.62-0.53,3.42l-25.98,19C533.41,864.17,532.9,864.32,532.4,864.32z"/>
	<path d="M534.72,920.55c-0.79,0-1.56-0.38-2.04-1.09c-0.75-1.12-0.45-2.64,0.67-3.4l24.05-16.09c1.16-0.74,2.65-0.44,3.4,0.68
		c0.75,1.12,0.45,2.64-0.67,3.4l-24.05,16.09C535.66,920.42,535.18,920.55,534.72,920.55z"/>
	<g>
		<path class="st14" d="M608.8,939.82c0,0-8.86-286.02-24.38-342.64l13.19-16.29c0,0,38.34,224.74,29.03,355.83L608.8,939.82z"/>
		<path d="M608.79,942.27c-0.56,0-1.11-0.19-1.54-0.55c-0.55-0.45-0.89-1.11-0.9-1.82c-0.1-2.86-9.02-286.37-24.29-342.07
			c-0.21-0.77-0.04-1.58,0.46-2.19l13.19-16.28c0.6-0.74,1.59-1.06,2.51-0.83c0.93,0.25,1.64,1.01,1.8,1.96
			c0.38,2.25,38.27,226.54,29.06,356.41c-0.08,1.13-0.92,2.05-2.02,2.24l-17.85,3.1C609.07,942.26,608.93,942.27,608.79,942.27z
			 M587.12,597.75c14.57,56.41,23.03,307.87,24.04,339.17l13.17-2.29c7.93-118.29-22.59-313.23-28.25-347.97L587.12,597.75z"/>
	</g>
	<path d="M609.19,908.92c-0.71,0-1.43-0.31-1.91-0.92c-0.85-1.06-0.67-2.6,0.38-3.44l17.45-13.97c1.05-0.86,2.6-0.68,3.44,0.38
		c0.85,1.06,0.67,2.6-0.38,3.44l-17.45,13.97C610.27,908.75,609.72,908.92,609.19,908.92z"/>
	<path d="M606.09,867.03c-0.97,0-1.89-0.57-2.27-1.52c-0.51-1.25,0.1-2.68,1.34-3.19l20.94-8.53c1.3-0.49,2.69,0.09,3.2,1.35
		c0.51,1.25-0.1,2.68-1.34,3.19l-20.94,8.53C606.7,866.97,606.4,867.03,606.09,867.03z"/>
	<path d="M603.37,787.53c-0.92,0-1.8-0.52-2.21-1.41c-0.57-1.23-0.05-2.69,1.18-3.26l18.67-8.73c1.2-0.57,2.68-0.06,3.25,1.18
		c0.57,1.23,0.05,2.69-1.18,3.26l-18.67,8.73C604.07,787.46,603.72,787.53,603.37,787.53z"/>
	<path d="M599.88,734.39c-0.79,0-1.57-0.39-2.05-1.1c-0.74-1.13-0.42-2.65,0.71-3.4l16.77-11c1.12-0.72,2.62-0.42,3.39,0.7
		c0.74,1.13,0.42,2.65-0.71,3.4l-16.77,11C600.81,734.26,600.35,734.39,599.88,734.39z"/>
	<path d="M595.22,678.94c-0.59,0-1.18-0.21-1.64-0.63c-1-0.9-1.08-2.45-0.18-3.46l13.97-15.52c0.9-0.99,2.46-1.07,3.46-0.18
		c1,0.9,1.08,2.45,0.18,3.46l-13.97,15.52C596.56,678.66,595.89,678.94,595.22,678.94z"/>
	<path d="M589.8,629.68c-0.56,0-1.12-0.18-1.57-0.57c-1.04-0.87-1.18-2.41-0.3-3.45l12.41-14.74c0.86-1.03,2.45-1.17,3.44-0.29
		c1.04,0.87,1.18,2.41,0.3,3.45l-12.41,14.74C591.19,629.39,590.49,629.68,589.8,629.68z"/>
	<path d="M357.68,1055.52c-1.3,0-2.38-1.01-2.45-2.31c-0.07-1.35,0.96-2.5,2.31-2.58l27.73-1.56c1.31-0.01,2.51,0.97,2.58,2.31
		c0.07,1.35-0.96,2.5-2.31,2.58l-27.73,1.56C357.77,1055.52,357.72,1055.52,357.68,1055.52z"/>
	<path d="M335.39,1094.69c-1.33,0-2.41-1.05-2.45-2.38c-0.04-1.35,1.03-2.47,2.38-2.51l27.14-0.78c0.03,0,0.04,0,0.07,0
		c1.33,0,2.41,1.05,2.45,2.38c0.04,1.35-1.03,2.47-2.38,2.51l-27.14,0.78C335.43,1094.69,335.41,1094.69,335.39,1094.69z"/>
	<path d="M344.69,1132.5c-0.15,0-0.31-0.01-0.48-0.04l-29.1-5.82c-1.33-0.27-2.19-1.56-1.93-2.88c0.26-1.31,1.49-2.16,2.88-1.93
		l29.1,5.82c1.33,0.27,2.19,1.56,1.93,2.88C346.87,1131.7,345.84,1132.5,344.69,1132.5z"/>
	<path d="M326.65,1163.32c-0.03,0-0.05,0-0.1,0l-31.98-1.16c-1.35-0.05-2.42-1.19-2.36-2.54c0.04-1.31,1.13-2.35,2.45-2.35
		c0.03,0,0.05,0,0.1,0l31.99,1.16c1.34,0.05,2.41,1.19,2.35,2.54C329.06,1162.28,327.97,1163.32,326.65,1163.32z"/>
	<path d="M304.55,1197.65h-27.92c-1.35,0-2.45-1.09-2.45-2.45s1.09-2.45,2.45-2.45h27.92c1.35,0,2.45,1.09,2.45,2.45
		S305.91,1197.65,304.55,1197.65z"/>
	<path d="M252.2,1244.19c-1.33,0-2.42-1.05-2.45-2.39c-0.03-1.35,1.04-2.47,2.39-2.5l35.1-0.78c1.12,0.05,2.47,1.04,2.5,2.39
		c0.03,1.35-1.04,2.47-2.39,2.5l-35.1,0.78C252.24,1244.19,252.21,1244.19,252.2,1244.19z"/>
	<path d="M269.65,1281.42c-0.03,0-0.05,0-0.08,0l-37.23-1.16c-1.35-0.04-2.41-1.18-2.36-2.53s1.08-2.38,2.53-2.36l37.23,1.16
		c1.35,0.04,2.41,1.18,2.36,2.53C272.05,1280.38,270.96,1281.42,269.65,1281.42z"/>
	<path d="M251.61,1319.42c-0.16,0-0.33-0.01-0.49-0.04l-34.91-7.18c-1.33-0.27-2.17-1.57-1.91-2.9c0.27-1.34,1.57-2.13,2.9-1.91
		l34.91,7.18c1.33,0.27,2.17,1.57,1.91,2.9C253.77,1318.63,252.74,1319.42,251.61,1319.42z"/>
	<path d="M408.14,1011.32c-5.47,0-22.29-2.06-23.03-2.16c-1.34-0.16-2.3-1.39-2.13-2.73s1.39-2.3,2.73-2.13
		c5.17,0.64,19.35,1.98,22.86,2.12c0.04,0,0.08,0,0.11,0c1.31,0,2.39,1.03,2.45,2.34c0.05,1.35-0.98,2.5-2.34,2.56
		C408.6,1011.32,408.38,1011.32,408.14,1011.32z"/>
	<path d="M424.97,981.82c-0.2,0-0.41-0.02-0.63-0.08l-19.79-5.23c-1.31-0.34-2.09-1.68-1.74-2.99c0.34-1.31,1.63-2.13,2.99-1.74
		l19.79,5.23c1.31,0.34,2.09,1.68,1.74,2.99C427.05,981.1,426.05,981.82,424.97,981.82z"/>
	<path d="M456.19,938.19c-0.18,0-0.36-0.01-0.53-0.05L432,932.9c-1.31-0.29-2.15-1.6-1.86-2.92c0.3-1.33,1.68-2.12,2.92-1.87
		l23.66,5.23c1.31,0.29,2.15,1.6,1.86,2.92C458.32,937.42,457.31,938.19,456.19,938.19z"/>
	<path d="M427.88,863.16c-1.03,0-1.98-0.65-2.32-1.67l-5.25-15.71c-0.42-1.28,0.26-2.67,1.54-3.1c1.28-0.44,2.67,0.25,3.1,1.54
		l5.25,15.71c0.42,1.28-0.26,2.67-1.54,3.1C428.4,863.12,428.14,863.16,427.88,863.16z"/>
	<path d="M387.75,923.07c-0.92,0-1.8-0.52-2.23-1.41l-7.57-16.29c-0.56-1.22-0.03-2.69,1.19-3.25c1.24-0.58,2.68-0.05,3.27,1.19
		l7.57,16.29c0.56,1.22,0.03,2.69-1.19,3.25C388.44,923,388.09,923.07,387.75,923.07z"/>
	<path d="M365.63,962.05c-0.89,0-1.75-0.49-2.19-1.34l-9.02-17.75c-0.61-1.2-0.12-2.68,1.08-3.29c1.22-0.62,2.67-0.14,3.29,1.07
		l9.02,17.75c0.61,1.2,0.12,2.68-1.08,3.29C366.38,961.97,366,962.05,365.63,962.05z"/>
	<path d="M347.02,991.13c-0.66,0-1.31-0.26-1.79-0.77l-12.79-13.67c-0.92-0.99-0.87-2.54,0.12-3.46c0.97-0.92,2.54-0.87,3.46,0.12
		l12.79,13.67c0.92,0.99,0.87,2.54-0.12,3.46C348.22,990.91,347.62,991.13,347.02,991.13z"/>
	<path d="M323.74,1028.95c-0.68,0-1.35-0.27-1.85-0.83l-12.79-14.54c-0.89-1.01-0.79-2.56,0.23-3.46c1.01-0.87,2.54-0.81,3.46,0.23
		l12.79,14.54c0.89,1.01,0.79,2.56-0.23,3.46C324.89,1028.74,324.32,1028.95,323.74,1028.95z"/>
	<path d="M298.73,1070.25c-0.66,0-1.31-0.26-1.79-0.78l-14.54-15.7c-0.93-1-0.86-2.54,0.12-3.46c1-0.92,2.54-0.87,3.46,0.12
		l14.54,15.7c0.93,1,0.86,2.54-0.12,3.46C299.92,1070.03,299.33,1070.25,298.73,1070.25z"/>
	<path d="M270.81,1119.41c-0.89,0-1.75-0.49-2.19-1.34l-11.63-22.99c-0.62-1.2-0.12-2.68,1.08-3.29c1.22-0.6,2.68-0.12,3.29,1.08
		l11.63,22.99c0.62,1.2,0.12,2.68-1.08,3.29C271.56,1119.33,271.18,1119.41,270.81,1119.41z"/>
	<path d="M238.82,1172.64c-1,0-1.94-0.61-2.3-1.6l-10.47-28.51c-0.46-1.27,0.18-2.68,1.45-3.14c1.26-0.52,2.68,0.18,3.14,1.45
		l10.47,28.51c0.46,1.27-0.18,2.68-1.45,3.14C239.38,1172.6,239.1,1172.64,238.82,1172.64z"/>
	<path d="M219.61,1208.12c-0.96,0-1.87-0.56-2.27-1.52l-11.06-26.76c-0.51-1.24,0.08-2.68,1.34-3.2c1.22-0.51,2.67,0.07,3.2,1.34
		l11.06,26.76c0.51,1.24-0.08,2.68-1.34,3.2C220.24,1208.07,219.93,1208.12,219.61,1208.12z"/>
	<path d="M196.05,1247.67c-1.04,0-2-0.66-2.34-1.69l-8.82-27.53c-0.41-1.3,0.3-2.67,1.59-3.09c1.35-0.36,2.67,0.3,3.09,1.59
		l8.82,27.53c0.41,1.3-0.3,2.67-1.59,3.09C196.54,1247.63,196.3,1247.67,196.05,1247.67z"/>
	<g>
		<path class="st15" d="M1557.03,604.74c0,0-31.41-5.24-22.11-21.52c9.31-16.29,9.31-16.29,9.31-16.29s-9.89-2.91-2.33-18.62
			c7.56-15.71,34.32-19.78,41.3-14.54s9.89,15.71-4.07,19.78s-25.6,0.58-23.85,13.38C1557.03,579.73,1557.03,604.74,1557.03,604.74z
			"/>
		<path d="M1557.03,607.19c-0.14,0-0.27-0.01-0.4-0.03c-2.05-0.34-20.15-3.62-24.81-13.42c-1.74-3.64-1.41-7.59,0.96-11.74
			l8.08-14.12c-1.12-0.84-2.36-2.14-3.24-4.09c-1.87-4.22-1.18-9.79,2.08-16.53c3.8-7.9,12.44-14.02,23.73-16.77
			c8.95-2.17,17.28-1.66,21.24,1.32c4.91,3.67,7.5,9.1,6.64,13.84c-0.6,3.32-3.09,7.8-11.49,10.25c-4.13,1.2-8,1.76-11.41,2.26
			c-9.02,1.31-11.58,1.97-10.69,8.43c1.75,12.82,1.76,37.12,1.76,38.14c0,0.72-0.31,1.4-0.86,1.87
			C1558.17,606.99,1557.61,607.19,1557.03,607.19z M1573.84,534.07c-2.69,0-5.86,0.35-9.25,1.18c-4.66,1.14-15.99,4.8-20.49,14.13
			c-2.53,5.25-3.23,9.53-2.04,12.33c0.94,2.22,2.82,2.86,2.88,2.88c0.7,0.23,1.28,0.77,1.54,1.46c0.26,0.68,0.22,1.46-0.14,2.1
			l-9.31,16.28c-1.56,2.71-1.82,5.06-0.79,7.2c2.53,5.36,12.35,8.69,18.31,10.1c-0.07-7.01-0.37-24.58-1.72-34.47
			c-1.57-11.58,6.78-12.79,14.86-13.95c3.25-0.47,6.94-1,10.74-2.11c3.31-0.96,7.39-2.86,8.05-6.42c0.52-2.89-1.39-6.53-4.76-9.05
			C1580.42,534.74,1577.57,534.07,1573.84,534.07z"/>
	</g>
	<g>
		<path class="st15" d="M1634.98,642.55c0,0,8.14,5.24,9.89,19.78c1.75,14.54-21.52,31.41-27.34,23.27
			c-5.82-8.14-12.22-50.03-13.38-63.99s12.22-18.62,23.27-7.56C1638.47,625.1,1634.98,642.55,1634.98,642.55z"/>
		<path d="M1622.13,690.17c-2.82,0-5.11-1.07-6.6-3.15c-6.51-9.12-12.81-53.1-13.83-65.2c-0.59-7.07,2.19-12.74,7.43-15.18
			c6.04-2.77,13.72-0.61,20.02,5.67c10,10.02,9.09,24.5,8.46,29.21c2.61,2.26,8.24,8.45,9.69,20.52
			c1.38,11.47-10.46,23.43-19.54,26.96C1625.74,689.78,1623.84,690.17,1622.13,690.17z M1614.72,610.33c-1.24,0-2.45,0.25-3.54,0.76
			c-3.33,1.55-5.02,5.31-4.59,10.32c1.22,14.6,7.71,55.45,12.93,62.77c1.41,1.96,4.99,0.81,6.48,0.25
			c8.24-3.2,17.43-13.64,16.44-21.8c-1.57-13.08-8.5-17.82-8.8-18.02c-0.82-0.55-1.26-1.56-1.07-2.53
			c0.04-0.16,3.09-16.33-6.89-26.3C1622.14,612.24,1618.21,610.33,1614.72,610.33z"/>
	</g>
	<path d="M1613.45,653.14c-1.35,0-2.45-1.09-2.45-2.44c0-1.35,1.09-2.45,2.45-2.45c0.12,0,12.49-0.12,19.79-7.43
		c0.96-0.94,2.51-0.95,3.47,0.01c0.96,0.96,0.96,2.51,0,3.46C1627.95,653.05,1614.04,653.14,1613.45,653.14z"/>
	<g>
		<path class="st15" d="M1802.52,1008.47c0,0-2.33,8.14,5.24,15.71c7.56,7.56-1.75,31.41-14.54,23.85
			c-12.8-7.56-14.54-14.54-14.54-14.54s-18.03,0.58-16.87-20.94C1762.96,991.01,1781.58,993.92,1802.52,1008.47z"/>
		<path d="M1798.16,1051.95c-2.05,0-4.14-0.6-6.19-1.82c-9.94-5.88-13.67-11.48-14.99-14.28c-2.72-0.26-8-1.33-12.12-5.54
			c-4.06-4.15-5.9-10.18-5.49-17.92c0.45-8.28,3.33-13.78,8.6-16.35c7.9-3.9,20.72-0.19,35.96,10.41c0.86,0.59,1.24,1.67,0.97,2.67
			c-0.1,0.36-1.74,6.98,4.61,13.33c5.54,5.54,3.83,17.23-1.39,23.99C1805.28,1050.06,1801.79,1051.95,1798.16,1051.95z
			 M1778.66,1031.04c1.12,0,2.12,0.77,2.39,1.85c0,0.03,1.89,6.2,13.41,13.04c4.44,2.61,7.78,0.08,9.76-2.49
			c4.18-5.4,5.1-14.24,1.8-17.52c-6.36-6.37-6.53-13.16-6.18-16.32c-12.98-8.76-23.78-12.09-29.74-9.15
			c-3.54,1.74-5.51,5.84-5.85,12.23c-0.34,6.27,1.03,11.04,4.07,14.17c4.13,4.28,10.2,4.18,10.28,4.2
			C1778.62,1031.04,1778.64,1031.04,1778.66,1031.04z"/>
	</g>
	<g>
		<path class="st15" d="M1740.86,908.41c0,0,2.33,28.51-16.29,32s-11.63-27.34-11.63-27.34s-27.34-12.8-20.94-37.23
			c6.4-24.43,36.07-18.62,33.16,20.36C1725.15,896.19,1736.2,888.05,1740.86,908.41z"/>
		<path d="M1721.75,943.13c-3.31,0-6.03-1.1-8.15-3.29c-6.19-6.44-4.39-20.28-3.43-25.48c-6.16-3.49-26.39-16.83-20.54-39.16
			c3.39-12.96,12.52-17.51,19.91-16.24c9.66,1.61,18.7,12.56,18.25,33.45c1.63-0.37,3.61-0.47,5.71,0.31
			c4.56,1.69,7.83,6.79,9.74,15.13c0.03,0.12,0.04,0.23,0.05,0.35c0.1,1.25,2.28,30.75-18.29,34.6
			C1723.87,943.02,1722.79,943.13,1721.75,943.13z M1707.08,863.67c-5.67,0-10.66,4.92-12.72,12.79
			c-5.79,22.13,18.57,33.9,19.61,34.39c1.04,0.49,1.6,1.63,1.35,2.75c-1.07,4.73-2.82,18.04,1.82,22.84
			c1.56,1.63,3.81,2.13,6.97,1.55c15.55-2.91,14.45-27,14.31-29.23c-1.49-6.4-3.76-10.36-6.59-11.43c-2.64-1-5.21,0.82-5.25,0.84
			c-0.78,0.56-1.8,0.61-2.62,0.14c-0.83-0.46-1.33-1.36-1.26-2.31c1.52-20.27-6.18-30.91-13.97-32.21
			C1708.19,863.71,1707.63,863.67,1707.08,863.67z"/>
	</g>
	<path d="M1712.06,914.92c-0.71,0-1.42-0.31-1.9-0.9c-0.85-1.05-0.7-2.59,0.36-3.44c0.08-0.08,8.95-7.36,13.58-17.18
		c0.57-1.23,2.04-1.75,3.27-1.17c1.22,0.57,1.74,2.04,1.16,3.26c-5.12,10.86-14.53,18.57-14.92,18.89
		C1713.15,914.75,1712.6,914.92,1712.06,914.92z"/>
	<g>
		<polygon class="st15" points="1617.14,871.56 1597.75,575.65 1615.2,600.09 1637.31,853.72 		"/>
		<path d="M1617.14,874.01c-0.31,0-0.63-0.05-0.93-0.18c-0.86-0.36-1.45-1.17-1.52-2.1l-19.39-295.91c-0.07-1.09,0.59-2.1,1.63-2.47
			c1.05-0.38,2.17-0.01,2.82,0.89l17.45,24.43c0.25,0.36,0.41,0.77,0.45,1.21l22.11,253.64c0.05,0.77-0.25,1.53-0.82,2.04
			l-20.17,17.84C1618.3,873.8,1617.73,874.01,1617.14,874.01z M1600.75,584.08l18.51,282.35l15.51-13.71l-21.95-251.74
			L1600.75,584.08z"/>
	</g>
	<g>
		<path class="st15" d="M1564.01,625.68c0,0,3.49-32.58,5.82-61.66c2.33-29.09,5.82-45.38,5.82-45.38l-9.31-13.96
			c0,0-8.14,12.8-10.47,31.41c-2.33,18.62-4.65,90.75-4.65,90.75L1564.01,625.68z"/>
		<path d="M1551.21,629.29c-0.63,0-1.23-0.23-1.68-0.66c-0.51-0.49-0.79-1.16-0.77-1.87c0.1-2.95,2.35-72.46,4.67-90.97
			c2.36-18.94,10.5-31.88,10.84-32.42c0.44-0.7,1.22-1.13,2.04-1.13c0.96-0.11,1.61,0.39,2.06,1.09l9.31,13.96
			c0.37,0.55,0.49,1.23,0.36,1.87c-0.03,0.16-3.49,16.5-5.77,45.06c-2.31,28.79-5.79,61.41-5.84,61.73
			c-0.12,1.16-1.05,2.07-2.21,2.18l-12.79,1.16C1551.36,629.29,1551.28,629.29,1551.21,629.29z M1564,625.68h0.05H1564z
			 M1566.53,509.4c-2.46,4.88-6.7,14.66-8.23,27c-2.04,16.23-4.1,74.35-4.55,87.76l8.02-0.72c0.79-7.52,3.64-34.97,5.6-59.61
			c2-24.86,4.88-40.63,5.67-44.66L1566.53,509.4z"/>
	</g>
	<path d="M1565.75,611.26c-0.71,0-1.42-0.31-1.9-0.91l-12.22-15.12c-0.86-1.05-0.7-2.59,0.36-3.44c1.07-0.83,2.6-0.7,3.44,0.37
		l12.22,15.12c0.86,1.05,0.7,2.59-0.36,3.44C1566.83,611.08,1566.3,611.26,1565.75,611.26z"/>
	<path d="M1568.08,584.5c-0.46,0-0.94-0.13-1.35-0.41l-13.95-9.31c-1.13-0.75-1.44-2.27-0.68-3.4c0.75-1.11,2.28-1.44,3.39-0.68
		l13.95,9.31c1.13,0.75,1.43,2.27,0.68,3.4C1569.65,584.12,1568.87,584.5,1568.08,584.5z"/>
	<path d="M1569.83,566.47c-0.56,0-1.12-0.18-1.57-0.57l-14.54-12.22c-1.04-0.87-1.18-2.41-0.3-3.45c0.86-1.02,2.45-1.16,3.44-0.29
		l14.54,12.22c1.04,0.87,1.18,2.41,0.3,3.45C1571.22,566.17,1570.52,566.47,1569.83,566.47z"/>
	<path d="M1571.86,545.96c-0.6,0-1.19-0.21-1.67-0.65l-13.67-12.65c-0.98-0.92-1.05-2.47-0.14-3.46c0.94-1.01,2.47-1.05,3.47-0.14
		l13.67,12.65c0.98,0.92,1.05,2.47,0.14,3.46C1573.17,545.7,1572.52,545.96,1571.86,545.96z"/>
	<path d="M1615.79,621.15c-0.57,0-1.16-0.2-1.63-0.61l-15.13-13.38c-1.01-0.9-1.11-2.44-0.2-3.45c0.87-1.05,2.45-1.11,3.46-0.21
		l15.13,13.38c1.01,0.9,1.11,2.44,0.21,3.45C1617.14,620.87,1616.46,621.15,1615.79,621.15z"/>
	<path d="M1619.27,651.4c-0.2,0-0.42-0.03-0.64-0.08l-17.17-4.65c-1.3-0.36-2.08-1.7-1.72-3.01c0.36-1.29,1.65-2.06,3.01-1.72
		l17.17,4.65c1.3,0.36,2.08,1.7,1.72,3.01C1621.34,650.68,1620.35,651.4,1619.27,651.4z"/>
	<path d="M1623.63,695.61c-0.48,0-0.97-0.14-1.39-0.43l-17.74-12.22c-1.11-0.77-1.39-2.29-0.63-3.4c0.78-1.13,2.28-1.41,3.42-0.63
		l17.74,12.22c1.11,0.77,1.39,2.29,0.63,3.4C1625.18,695.24,1624.41,695.61,1623.63,695.61z"/>
	<path d="M1626.98,740.11c-0.48,0-0.97-0.14-1.39-0.43l-19.34-13.38c-1.11-0.77-1.39-2.3-0.62-3.41c0.74-1.11,2.28-1.4,3.4-0.62
		l19.34,13.38c1.11,0.77,1.39,2.3,0.61,3.41C1628.53,739.74,1627.76,740.11,1626.98,740.11z"/>
	<path d="M1630.62,782.72c-0.45,0-0.9-0.12-1.3-0.37l-18.33-11.49c-1.15-0.72-1.49-2.23-0.78-3.38c0.72-1.17,2.27-1.5,3.38-0.78
		l18.33,11.49c1.15,0.72,1.49,2.23,0.78,3.38C1632.23,782.32,1631.42,782.72,1630.62,782.72z"/>
	<path d="M1632.94,809.63c-0.37,0-0.75-0.08-1.11-0.26l-20.5-10.33c-1.2-0.61-1.69-2.08-1.08-3.29c0.6-1.22,2.06-1.72,3.29-1.09
		l20.5,10.33c1.2,0.61,1.69,2.08,1.08,3.29C1634.7,809.14,1633.83,809.63,1632.94,809.63z"/>
	<path d="M1634.98,835.52c-0.23,0-0.46-0.03-0.71-0.1l-20.35-6.11c-1.28-0.39-2.02-1.75-1.64-3.05c0.4-1.29,1.71-2.04,3.06-1.64
		l20.35,6.11c1.28,0.39,2.02,1.75,1.64,3.05C1637,834.84,1636.03,835.52,1634.98,835.52z"/>
</g>
</svg>
